<svg width="63" height="132" viewBox="0 0 63 132" fill="none" xmlns="http://www.w3.org/2000/svg">
<path d="M36.4 60.1414C40.4 60.1414 44.0333 61.0414 47.3 62.8414C50.5667 64.6414 53.1667 67.2414 55.1 70.6414C57.0333 74.0414 58 78.2081 58 83.1414C58 91.1414 55.6 97.2747 50.8 101.541C46 105.808 38.7333 107.941 29 107.941C20.7333 107.941 13.9333 106.641 8.6 104.041V88.2414C11.1333 89.3747 14.1667 90.4081 17.7 91.3414C21.2333 92.2747 24.4667 92.7414 27.4 92.7414C30.9333 92.7414 33.6667 91.9747 35.6 90.4414C37.5333 88.9081 38.5 86.6747 38.5 83.7414C38.5 81.0081 37.5 78.8747 35.5 77.3414C33.5667 75.8081 30.6333 75.0414 26.7 75.0414C24.9 75.0414 23.1333 75.2414 21.4 75.6414C19.7333 75.9747 18.2333 76.3414 16.9 76.7414L9.8 73.2414L12.5 35.5414H53.2V51.6414H28.9L28 61.0414C29.0667 60.8414 30.1333 60.6414 31.2 60.4414C32.3333 60.2414 34.0667 60.1414 36.4 60.1414Z" fill="#0461FD"/>
<path d="M32.4 57.1414C36.4 57.1414 40.0333 58.0414 43.3 59.8414C46.5667 61.6414 49.1667 64.2414 51.1 67.6414C53.0333 71.0414 54 75.2081 54 80.1414C54 88.1414 51.6 94.2747 46.8 98.5414C42 102.808 34.7333 104.941 25 104.941C16.7333 104.941 9.93333 103.641 4.6 101.041V85.2414C7.13333 86.3747 10.1667 87.4081 13.7 88.3414C17.2333 89.2747 20.4667 89.7414 23.4 89.7414C26.9333 89.7414 29.6667 88.9747 31.6 87.4414C33.5333 85.9081 34.5 83.6747 34.5 80.7414C34.5 78.0081 33.5 75.8747 31.5 74.3414C29.5667 72.8081 26.6333 72.0414 22.7 72.0414C20.9 72.0414 19.1333 72.2414 17.4 72.6414C15.7333 72.9747 14.2333 73.3414 12.9 73.7414L5.8 70.2414L8.5 32.5414H49.2V48.6414H24.9L24 58.0414C25.0667 57.8414 26.1333 57.6414 27.2 57.4414C28.3333 57.2414 30.0667 57.1414 32.4 57.1414Z" fill="white"/>
<path d="M43.3 59.8414L42.3348 61.5931L43.3 59.8414ZM51.1 67.6414L52.8386 66.6528L51.1 67.6414ZM46.8 98.5414L48.1287 100.036L46.8 98.5414ZM4.6 101.041H2.6C2.6 101.806 3.03614 102.504 3.7236 102.839L4.6 101.041ZM4.6 85.2414L5.41673 83.4158C4.79795 83.1389 4.08107 83.1944 3.51222 83.5631C2.94337 83.9318 2.6 84.5635 2.6 85.2414H4.6ZM13.7 88.3414L13.1892 90.2751L13.7 88.3414ZM31.6 87.4414L30.3572 85.8744L31.6 87.4414ZM31.5 74.3414L30.2572 75.9084C30.2658 75.9152 30.2744 75.922 30.2831 75.9286L31.5 74.3414ZM17.4 72.6414L17.7922 74.6026C17.8115 74.5987 17.8306 74.5946 17.8497 74.5902L17.4 72.6414ZM12.9 73.7414L12.0157 75.5353C12.4692 75.7588 12.9905 75.8023 13.4747 75.6571L12.9 73.7414ZM5.8 70.2414L3.80511 70.0985C3.747 70.9099 4.18609 71.6756 4.91569 72.0353L5.8 70.2414ZM8.5 32.5414V30.5414C7.45087 30.5414 6.58005 31.3521 6.50511 32.3985L8.5 32.5414ZM49.2 32.5414H51.2C51.2 31.4368 50.3046 30.5414 49.2 30.5414V32.5414ZM49.2 48.6414V50.6414C50.3046 50.6414 51.2 49.746 51.2 48.6414H49.2ZM24.9 48.6414V46.6414C23.8693 46.6414 23.0073 47.4247 22.9091 48.4508L24.9 48.6414ZM24 58.0414L22.0091 57.8508C21.9492 58.4764 22.1869 59.0938 22.6508 59.5177C23.1147 59.9417 23.7509 60.123 24.3686 60.0071L24 58.0414ZM27.2 57.4414L26.8524 55.4718C26.8454 55.4731 26.8384 55.4743 26.8314 55.4757L27.2 57.4414ZM32.4 59.1414C36.0877 59.1414 39.3851 59.9677 42.3348 61.5931L44.2652 58.0897C40.6816 56.1151 36.7123 55.1414 32.4 55.1414V59.1414ZM42.3348 61.5931C45.2621 63.2061 47.6012 65.5345 49.3614 68.63L52.8386 66.6528C50.7321 62.9483 47.8712 60.0767 44.2652 58.0897L42.3348 61.5931ZM49.3614 68.63C51.0842 71.6597 52 75.4656 52 80.1414H56C56 74.9506 54.9825 70.4231 52.8386 66.6528L49.3614 68.63ZM52 80.1414C52 87.7214 49.743 93.2495 45.4713 97.0466L48.1287 100.036C53.4571 95.2999 56 88.5614 56 80.1414H52ZM45.4713 97.0466C41.1861 100.856 34.4878 102.941 25 102.941V106.941C34.9788 106.941 42.8139 104.76 48.1287 100.036L45.4713 97.0466ZM25 102.941C16.9248 102.941 10.4512 101.669 5.47641 99.2437L3.7236 102.839C9.41548 105.614 16.5419 106.941 25 106.941V102.941ZM6.6 101.041V85.2414H2.6V101.041H6.6ZM3.78327 87.067C6.44081 88.2559 9.5819 89.3222 13.1892 90.2751L14.2108 86.4077C10.7514 85.4939 7.82586 84.4935 5.41673 83.4158L3.78327 87.067ZM13.1892 90.2751C16.8503 91.2421 20.2581 91.7414 23.4 91.7414V87.7414C20.6752 87.7414 17.6164 87.3073 14.2108 86.4077L13.1892 90.2751ZM23.4 91.7414C27.1947 91.7414 30.4314 90.9209 32.8428 89.0084L30.3572 85.8744C28.902 87.0286 26.672 87.7414 23.4 87.7414V91.7414ZM32.8428 89.0084C35.3469 87.0224 36.5 84.1566 36.5 80.7414H32.5C32.5 83.1928 31.7197 84.7938 30.3572 85.8744L32.8428 89.0084ZM36.5 80.7414C36.5 77.4467 35.2568 74.7015 32.7169 72.7542L30.2831 75.9286C31.7432 77.048 32.5 78.5694 32.5 80.7414H36.5ZM32.7428 72.7744C30.3001 70.8371 26.8343 70.0414 22.7 70.0414V74.0414C26.4323 74.0414 28.8333 74.7791 30.2572 75.9084L32.7428 72.7744ZM22.7 70.0414C20.7504 70.0414 18.8329 70.2582 16.9503 70.6926L17.8497 74.5902C19.4338 74.2246 21.0496 74.0414 22.7 74.0414V70.0414ZM17.0078 70.6802C15.2925 71.0233 13.7301 71.4043 12.3253 71.8258L13.4747 75.6571C14.7366 75.2785 16.1742 74.9262 17.7922 74.6026L17.0078 70.6802ZM13.7843 71.9475L6.68431 68.4475L4.91569 72.0353L12.0157 75.5353L13.7843 71.9475ZM7.79489 70.3843L10.4949 32.6843L6.50511 32.3985L3.80511 70.0985L7.79489 70.3843ZM8.5 34.5414H49.2V30.5414H8.5V34.5414ZM47.2 32.5414V48.6414H51.2V32.5414H47.2ZM49.2 46.6414H24.9V50.6414H49.2V46.6414ZM22.9091 48.4508L22.0091 57.8508L25.9909 58.232L26.8909 48.832L22.9091 48.4508ZM24.3686 60.0071C25.4352 59.8071 26.5019 59.6071 27.5686 59.4071L26.8314 55.4757C25.7648 55.6757 24.6981 55.8757 23.6314 56.0757L24.3686 60.0071ZM27.5476 59.411C28.5011 59.2427 30.0902 59.1414 32.4 59.1414V55.1414C30.0431 55.1414 28.1655 55.2401 26.8524 55.4718L27.5476 59.411Z" fill="#0461FD"/>
</svg>
