<svg width="63" height="132" viewBox="0 0 63 132" fill="none" xmlns="http://www.w3.org/2000/svg">
<path d="M61.1 93.1414H53.2V106.941H34.2V93.1414H5.7V78.9414L35.4 35.5414H53.2V78.7414H61.1V93.1414ZM34.2 78.7414V70.4414C34.2 69.4414 34.2333 68.1414 34.3 66.5414C34.3667 64.8747 34.4333 63.3747 34.5 62.0414C34.5667 60.7081 34.6 60.0081 34.6 59.9414H34.1C33.4333 61.4081 32.8333 62.6081 32.3 63.5414C31.8333 64.4747 31.1667 65.6081 30.3 66.9414L22.4 78.7414H34.2Z" fill="#0461FD"/>
<path d="M57.1 90.1414H49.2V103.941H30.2V90.1414H1.7V75.9414L31.4 32.5414H49.2V75.7414H57.1V90.1414ZM30.2 75.7414V67.4414C30.2 66.4414 30.2333 65.1414 30.3 63.5414C30.3667 61.8747 30.4333 60.3747 30.5 59.0414C30.5667 57.7081 30.6 57.0081 30.6 56.9414H30.1C29.4333 58.4081 28.8333 59.6081 28.3 60.5414C27.8333 61.4747 27.1667 62.6081 26.3 63.9414L18.4 75.7414H30.2Z" fill="white"/>
<path d="M57.1 90.1414V92.1414C58.2046 92.1414 59.1 91.246 59.1 90.1414H57.1ZM49.2 90.1414V88.1414C48.0954 88.1414 47.2 89.0368 47.2 90.1414H49.2ZM49.2 103.941V105.941C50.3046 105.941 51.2 105.046 51.2 103.941H49.2ZM30.2 103.941H28.2C28.2 105.046 29.0954 105.941 30.2 105.941V103.941ZM30.2 90.1414H32.2C32.2 89.0368 31.3046 88.1414 30.2 88.1414V90.1414ZM1.7 90.1414H-0.3C-0.3 91.246 0.595431 92.1414 1.7 92.1414V90.1414ZM1.7 75.9414L0.0494788 74.8119C-0.178183 75.1446 -0.3 75.5383 -0.3 75.9414H1.7ZM31.4 32.5414V30.5414C30.7399 30.5414 30.1223 30.8671 29.7495 31.4119L31.4 32.5414ZM49.2 32.5414H51.2C51.2 31.4368 50.3046 30.5414 49.2 30.5414V32.5414ZM49.2 75.7414H47.2C47.2 76.846 48.0954 77.7414 49.2 77.7414V75.7414ZM57.1 75.7414H59.1C59.1 74.6368 58.2046 73.7414 57.1 73.7414V75.7414ZM30.2 75.7414V77.7414C31.3046 77.7414 32.2 76.846 32.2 75.7414H30.2ZM30.3 63.5414L32.2983 63.6247L32.2984 63.6213L30.3 63.5414ZM30.5 59.0414L28.5025 58.9415V58.9415L30.5 59.0414ZM30.6 56.9414H32.6C32.6 55.8368 31.7046 54.9414 30.6 54.9414V56.9414ZM30.1 56.9414V54.9414C29.3157 54.9414 28.6038 55.3998 28.2793 56.1138L30.1 56.9414ZM28.3 60.5414L26.5635 59.5491C26.5452 59.5813 26.5277 59.6139 26.5111 59.647L28.3 60.5414ZM26.3 63.9414L27.9619 65.0541C27.967 65.0465 27.972 65.039 27.9769 65.0314L26.3 63.9414ZM18.4 75.7414L16.7381 74.6288C16.3273 75.2422 16.288 76.0321 16.6357 76.6834C16.9835 77.3347 17.6617 77.7414 18.4 77.7414V75.7414ZM57.1 88.1414H49.2V92.1414H57.1V88.1414ZM47.2 90.1414V103.941H51.2V90.1414H47.2ZM49.2 101.941H30.2V105.941H49.2V101.941ZM32.2 103.941V90.1414H28.2V103.941H32.2ZM30.2 88.1414H1.7V92.1414H30.2V88.1414ZM3.7 90.1414V75.9414H-0.3V90.1414H3.7ZM3.35052 77.0709L33.0505 33.6709L29.7495 31.4119L0.0494788 74.8119L3.35052 77.0709ZM31.4 34.5414H49.2V30.5414H31.4V34.5414ZM47.2 32.5414V75.7414H51.2V32.5414H47.2ZM49.2 77.7414H57.1V73.7414H49.2V77.7414ZM55.1 75.7414V90.1414H59.1V75.7414H55.1ZM32.2 75.7414V67.4414H28.2V75.7414H32.2ZM32.2 67.4414C32.2 66.4805 32.2322 65.2112 32.2983 63.6247L28.3017 63.4581C28.2345 65.0716 28.2 66.4023 28.2 67.4414H32.2ZM32.2984 63.6213C32.3649 61.9598 32.4312 60.4666 32.4975 59.1413L28.5025 58.9415C28.4354 60.2829 28.3685 61.7897 28.3016 63.4615L32.2984 63.6213ZM32.4975 59.1413C32.5615 57.8621 32.6 57.0744 32.6 56.9414H28.6C28.6 56.9122 28.5959 57.0289 28.5773 57.4213C28.5607 57.7689 28.5358 58.2753 28.5025 58.9415L32.4975 59.1413ZM30.6 54.9414H30.1V58.9414H30.6V54.9414ZM28.2793 56.1138C27.6269 57.549 27.0552 58.6886 26.5635 59.5491L30.0365 61.5337C30.6114 60.5275 31.2398 59.2671 31.9207 57.769L28.2793 56.1138ZM26.5111 59.647C26.0906 60.488 25.4676 61.5522 24.6231 62.8514L27.9769 65.0314C28.8657 63.664 29.576 62.4615 30.0889 61.4358L26.5111 59.647ZM24.6381 62.8288L16.7381 74.6288L20.0619 76.8541L27.9619 65.0541L24.6381 62.8288ZM18.4 77.7414H30.2V73.7414H18.4V77.7414Z" fill="#0461FD"/>
</svg>
