<svg width="63" height="132" viewBox="0 0 63 132" fill="none" xmlns="http://www.w3.org/2000/svg">
<path d="M50 106.941H30.4V71.6414C30.4 70.9747 30.4 69.7747 30.4 68.0414C30.4 66.3081 30.4333 64.3747 30.5 62.2414C30.5667 60.1081 30.6333 58.2081 30.7 56.5414C29.8333 57.5414 29.0333 58.4081 28.3 59.1414C27.6333 59.8747 26.9333 60.5414 26.2 61.1414L18.1 67.8414L8.1 55.5414L32.6 35.5414H50V106.941Z" fill="#0461FD"/>
<path d="M46 103.941H26.4V68.6414C26.4 67.9747 26.4 66.7747 26.4 65.0414C26.4 63.3081 26.4333 61.3747 26.5 59.2414C26.5667 57.1081 26.6333 55.2081 26.7 53.5414C25.8333 54.5414 25.0333 55.4081 24.3 56.1414C23.6333 56.8747 22.9333 57.5414 22.2 58.1414L14.1 64.8414L4.1 52.5414L28.6 32.5414H46V103.941Z" fill="white"/>
<path d="M46 103.941V105.941C47.1046 105.941 48 105.046 48 103.941H46ZM26.4 103.941H24.4C24.4 105.046 25.2954 105.941 26.4 105.941V103.941ZM26.5 59.2414L28.499 59.3039V59.3039L26.5 59.2414ZM26.7 53.5414L28.6984 53.6213C28.7324 52.7724 28.2263 51.9947 27.4363 51.6819C26.6464 51.3691 25.7451 51.5895 25.1886 52.2315L26.7 53.5414ZM24.3 56.1414L22.8858 54.7272C22.8634 54.7496 22.8415 54.7726 22.8201 54.7961L24.3 56.1414ZM22.2 58.1414L20.9335 56.5935L20.9253 56.6003L22.2 58.1414ZM14.1 64.8414L12.5482 66.1031C12.8846 66.5169 13.3725 66.7792 13.9032 66.8317C14.434 66.8842 14.9638 66.7225 15.3747 66.3825L14.1 64.8414ZM4.1 52.5414L2.83525 50.9921C1.98079 51.6896 1.85234 52.9472 2.54816 53.8031L4.1 52.5414ZM28.6 32.5414V30.5414C28.1391 30.5414 27.6923 30.7006 27.3352 30.9921L28.6 32.5414ZM46 32.5414H48C48 31.4368 47.1046 30.5414 46 30.5414V32.5414ZM46 101.941H26.4V105.941H46V101.941ZM28.4 103.941V68.6414H24.4V103.941H28.4ZM28.4 68.6414C28.4 68.6401 28.4 68.6388 28.4 68.6375C28.4 68.6362 28.4 68.6349 28.4 68.6336C28.4 68.6323 28.4 68.6309 28.4 68.6296C28.4 68.6283 28.4 68.627 28.4 68.6257C28.4 68.6244 28.4 68.623 28.4 68.6217C28.4 68.6204 28.4 68.6191 28.4 68.6177C28.4 68.6164 28.4 68.6151 28.4 68.6138C28.4 68.6124 28.4 68.6111 28.4 68.6098C28.4 68.6084 28.4 68.6071 28.4 68.6058C28.4 68.6044 28.4 68.6031 28.4 68.6017C28.4 68.6004 28.4 68.599 28.4 68.5977C28.4 68.5964 28.4 68.595 28.4 68.5937C28.4 68.5923 28.4 68.591 28.4 68.5896C28.4 68.5882 28.4 68.5869 28.4 68.5855C28.4 68.5842 28.4 68.5828 28.4 68.5814C28.4 68.5801 28.4 68.5787 28.4 68.5773C28.4 68.576 28.4 68.5746 28.4 68.5732C28.4 68.5719 28.4 68.5705 28.4 68.5691C28.4 68.5677 28.4 68.5664 28.4 68.565C28.4 68.5636 28.4 68.5622 28.4 68.5608C28.4 68.5595 28.4 68.5581 28.4 68.5567C28.4 68.5553 28.4 68.5539 28.4 68.5525C28.4 68.5511 28.4 68.5497 28.4 68.5483C28.4 68.5469 28.4 68.5455 28.4 68.5441C28.4 68.5427 28.4 68.5413 28.4 68.5399C28.4 68.5385 28.4 68.5371 28.4 68.5357C28.4 68.5343 28.4 68.5329 28.4 68.5315C28.4 68.5301 28.4 68.5287 28.4 68.5272C28.4 68.5258 28.4 68.5244 28.4 68.523C28.4 68.5216 28.4 68.5201 28.4 68.5187C28.4 68.5173 28.4 68.5159 28.4 68.5144C28.4 68.513 28.4 68.5116 28.4 68.5102C28.4 68.5087 28.4 68.5073 28.4 68.5059C28.4 68.5044 28.4 68.503 28.4 68.5015C28.4 68.5001 28.4 68.4987 28.4 68.4972C28.4 68.4958 28.4 68.4943 28.4 68.4929C28.4 68.4914 28.4 68.49 28.4 68.4885C28.4 68.4871 28.4 68.4856 28.4 68.4842C28.4 68.4827 28.4 68.4812 28.4 68.4798C28.4 68.4783 28.4 68.4769 28.4 68.4754C28.4 68.4739 28.4 68.4725 28.4 68.471C28.4 68.4695 28.4 68.468 28.4 68.4666C28.4 68.4651 28.4 68.4636 28.4 68.4622C28.4 68.4607 28.4 68.4592 28.4 68.4577C28.4 68.4562 28.4 68.4548 28.4 68.4533C28.4 68.4518 28.4 68.4503 28.4 68.4488C28.4 68.4473 28.4 68.4458 28.4 68.4443C28.4 68.4428 28.4 68.4413 28.4 68.4398C28.4 68.4383 28.4 68.4368 28.4 68.4353C28.4 68.4338 28.4 68.4323 28.4 68.4308C28.4 68.4293 28.4 68.4278 28.4 68.4263C28.4 68.4248 28.4 68.4233 28.4 68.4218C28.4 68.4203 28.4 68.4187 28.4 68.4172C28.4 68.4157 28.4 68.4142 28.4 68.4127C28.4 68.4111 28.4 68.4096 28.4 68.4081C28.4 68.4066 28.4 68.405 28.4 68.4035C28.4 68.402 28.4 68.4005 28.4 68.3989C28.4 68.3974 28.4 68.3959 28.4 68.3943C28.4 68.3928 28.4 68.3912 28.4 68.3897C28.4 68.3881 28.4 68.3866 28.4 68.3851C28.4 68.3835 28.4 68.382 28.4 68.3804C28.4 68.3789 28.4 68.3773 28.4 68.3758C28.4 68.3742 28.4 68.3726 28.4 68.3711C28.4 68.3695 28.4 68.368 28.4 68.3664C28.4 68.3648 28.4 68.3633 28.4 68.3617C28.4 68.3601 28.4 68.3586 28.4 68.357C28.4 68.3554 28.4 68.3539 28.4 68.3523C28.4 68.3507 28.4 68.3491 28.4 68.3476C28.4 68.346 28.4 68.3444 28.4 68.3428C28.4 68.3412 28.4 68.3396 28.4 68.3381C28.4 68.3365 28.4 68.3349 28.4 68.3333C28.4 68.3317 28.4 68.3301 28.4 68.3285C28.4 68.3269 28.4 68.3253 28.4 68.3237C28.4 68.3221 28.4 68.3205 28.4 68.3189C28.4 68.3173 28.4 68.3157 28.4 68.3141C28.4 68.3125 28.4 68.3109 28.4 68.3093C28.4 68.3077 28.4 68.3061 28.4 68.3044C28.4 68.3028 28.4 68.3012 28.4 68.2996C28.4 68.298 28.4 68.2963 28.4 68.2947C28.4 68.2931 28.4 68.2915 28.4 68.2898C28.4 68.2882 28.4 68.2866 28.4 68.285C28.4 68.2833 28.4 68.2817 28.4 68.2801C28.4 68.2784 28.4 68.2768 28.4 68.2751C28.4 68.2735 28.4 68.2719 28.4 68.2702C28.4 68.2686 28.4 68.2669 28.4 68.2653C28.4 68.2636 28.4 68.262 28.4 68.2603C28.4 68.2587 28.4 68.257 28.4 68.2554C28.4 68.2537 28.4 68.2521 28.4 68.2504C28.4 68.2487 28.4 68.2471 28.4 68.2454C28.4 68.2437 28.4 68.2421 28.4 68.2404C28.4 68.2387 28.4 68.2371 28.4 68.2354C28.4 68.2337 28.4 68.232 28.4 68.2304C28.4 68.2287 28.4 68.227 28.4 68.2253C28.4 68.2237 28.4 68.222 28.4 68.2203C28.4 68.2186 28.4 68.2169 28.4 68.2152C28.4 68.2135 28.4 68.2118 28.4 68.2102C28.4 68.2085 28.4 68.2068 28.4 68.2051C28.4 68.2034 28.4 68.2017 28.4 68.2C28.4 68.1983 28.4 68.1966 28.4 68.1949C28.4 68.1932 28.4 68.1915 28.4 68.1897C28.4 68.188 28.4 68.1863 28.4 68.1846C28.4 68.1829 28.4 68.1812 28.4 68.1795C28.4 68.1777 28.4 68.176 28.4 68.1743C28.4 68.1726 28.4 68.1709 28.4 68.1691C28.4 68.1674 28.4 68.1657 28.4 68.164C28.4 68.1622 28.4 68.1605 28.4 68.1588C28.4 68.157 28.4 68.1553 28.4 68.1536C28.4 68.1518 28.4 68.1501 28.4 68.1483C28.4 68.1466 28.4 68.1449 28.4 68.1431C28.4 68.1414 28.4 68.1396 28.4 68.1379C28.4 68.1361 28.4 68.1344 28.4 68.1326C28.4 68.1309 28.4 68.1291 28.4 68.1273C28.4 68.1256 28.4 68.1238 28.4 68.1221C28.4 68.1203 28.4 68.1185 28.4 68.1168C28.4 68.115 28.4 68.1132 28.4 68.1115C28.4 68.1097 28.4 68.1079 28.4 68.1061C28.4 68.1044 28.4 68.1026 28.4 68.1008C28.4 68.099 28.4 68.0973 28.4 68.0955C28.4 68.0937 28.4 68.0919 28.4 68.0901C28.4 68.0883 28.4 68.0866 28.4 68.0848C28.4 68.083 28.4 68.0812 28.4 68.0794C28.4 68.0776 28.4 68.0758 28.4 68.074C28.4 68.0722 28.4 68.0704 28.4 68.0686C28.4 68.0668 28.4 68.065 28.4 68.0632C28.4 68.0614 28.4 68.0596 28.4 68.0578C28.4 68.0559 28.4 68.0541 28.4 68.0523C28.4 68.0505 28.4 68.0487 28.4 68.0469C28.4 68.0451 28.4 68.0432 28.4 68.0414C28.4 68.0396 28.4 68.0378 28.4 68.0359C28.4 68.0341 28.4 68.0323 28.4 68.0304C28.4 68.0286 28.4 68.0268 28.4 68.0249C28.4 68.0231 28.4 68.0213 28.4 68.0194C28.4 68.0176 28.4 68.0158 28.4 68.0139C28.4 68.0121 28.4 68.0102 28.4 68.0084C28.4 68.0065 28.4 68.0047 28.4 68.0028C28.4 68.001 28.4 67.9991 28.4 67.9973C28.4 67.9954 28.4 67.9936 28.4 67.9917C28.4 67.9898 28.4 67.988 28.4 67.9861C28.4 67.9842 28.4 67.9824 28.4 67.9805C28.4 67.9786 28.4 67.9768 28.4 67.9749C28.4 67.973 28.4 67.9712 28.4 67.9693C28.4 67.9674 28.4 67.9655 28.4 67.9636C28.4 67.9618 28.4 67.9599 28.4 67.958C28.4 67.9561 28.4 67.9542 28.4 67.9523C28.4 67.9505 28.4 67.9486 28.4 67.9467C28.4 67.9448 28.4 67.9429 28.4 67.941C28.4 67.9391 28.4 67.9372 28.4 67.9353C28.4 67.9334 28.4 67.9315 28.4 67.9296C28.4 67.9277 28.4 67.9258 28.4 67.9239C28.4 67.922 28.4 67.9201 28.4 67.9181C28.4 67.9162 28.4 67.9143 28.4 67.9124C28.4 67.9105 28.4 67.9086 28.4 67.9066C28.4 67.9047 28.4 67.9028 28.4 67.9009C28.4 67.8989 28.4 67.897 28.4 67.8951C28.4 67.8932 28.4 67.8912 28.4 67.8893C28.4 67.8874 28.4 67.8854 28.4 67.8835C28.4 67.8816 28.4 67.8796 28.4 67.8777C28.4 67.8757 28.4 67.8738 28.4 67.8718C28.4 67.8699 28.4 67.868 28.4 67.866C28.4 67.8641 28.4 67.8621 28.4 67.8602C28.4 67.8582 28.4 67.8562 28.4 67.8543C28.4 67.8523 28.4 67.8504 28.4 67.8484C28.4 67.8465 28.4 67.8445 28.4 67.8425C28.4 67.8406 28.4 67.8386 28.4 67.8366C28.4 67.8346 28.4 67.8327 28.4 67.8307C28.4 67.8287 28.4 67.8268 28.4 67.8248C28.4 67.8228 28.4 67.8208 28.4 67.8188C28.4 67.8169 28.4 67.8149 28.4 67.8129C28.4 67.8109 28.4 67.8089 28.4 67.8069C28.4 67.8049 28.4 67.8029 28.4 67.8009C28.4 67.799 28.4 67.797 28.4 67.795C28.4 67.793 28.4 67.791 28.4 67.789C28.4 67.787 28.4 67.785 28.4 67.783C28.4 67.7809 28.4 67.7789 28.4 67.7769C28.4 67.7749 28.4 67.7729 28.4 67.7709C28.4 67.7689 28.4 67.7669 28.4 67.7648C28.4 67.7628 28.4 67.7608 28.4 67.7588C28.4 67.7568 28.4 67.7547 28.4 67.7527C28.4 67.7507 28.4 67.7487 28.4 67.7466C28.4 67.7446 28.4 67.7426 28.4 67.7405C28.4 67.7385 28.4 67.7365 28.4 67.7344C28.4 67.7324 28.4 67.7303 28.4 67.7283C28.4 67.7262 28.4 67.7242 28.4 67.7222C28.4 67.7201 28.4 67.7181 28.4 67.716C28.4 67.714 28.4 67.7119 28.4 67.7099C28.4 67.7078 28.4 67.7057 28.4 67.7037C28.4 67.7016 28.4 67.6996 28.4 67.6975C28.4 67.6954 28.4 67.6934 28.4 67.6913C28.4 67.6892 28.4 67.6872 28.4 67.6851C28.4 67.683 28.4 67.681 28.4 67.6789C28.4 67.6768 28.4 67.6747 28.4 67.6726C28.4 67.6706 28.4 67.6685 28.4 67.6664C28.4 67.6643 28.4 67.6622 28.4 67.6601C28.4 67.6581 28.4 67.656 28.4 67.6539C28.4 67.6518 28.4 67.6497 28.4 67.6476C28.4 67.6455 28.4 67.6434 28.4 67.6413C28.4 67.6392 28.4 67.6371 28.4 67.635C28.4 67.6329 28.4 67.6308 28.4 67.6287C28.4 67.6266 28.4 67.6245 28.4 67.6224C28.4 67.6202 28.4 67.6181 28.4 67.616C28.4 67.6139 28.4 67.6118 28.4 67.6097C28.4 67.6075 28.4 67.6054 28.4 67.6033C28.4 67.6012 28.4 67.599 28.4 67.5969C28.4 67.5948 28.4 67.5927 28.4 67.5905C28.4 67.5884 28.4 67.5863 28.4 67.5841C28.4 67.582 28.4 67.5798 28.4 67.5777C28.4 67.5756 28.4 67.5734 28.4 67.5713C28.4 67.5691 28.4 67.567 28.4 67.5648C28.4 67.5627 28.4 67.5605 28.4 67.5584C28.4 67.5562 28.4 67.5541 28.4 67.5519C28.4 67.5498 28.4 67.5476 28.4 67.5454C28.4 67.5433 28.4 67.5411 28.4 67.539C28.4 67.5368 28.4 67.5346 28.4 67.5325C28.4 67.5303 28.4 67.5281 28.4 67.5259C28.4 67.5238 28.4 67.5216 28.4 67.5194C28.4 67.5173 28.4 67.5151 28.4 67.5129C28.4 67.5107 28.4 67.5085 28.4 67.5063C28.4 67.5042 28.4 67.502 28.4 67.4998C28.4 67.4976 28.4 67.4954 28.4 67.4932C28.4 67.491 28.4 67.4888 28.4 67.4866C28.4 67.4844 28.4 67.4822 28.4 67.48C28.4 67.4778 28.4 67.4756 28.4 67.4734C28.4 67.4712 28.4 67.469 28.4 67.4668C28.4 67.4646 28.4 67.4624 28.4 67.4602C28.4 67.4579 28.4 67.4557 28.4 67.4535C28.4 67.4513 28.4 67.4491 28.4 67.4468C28.4 67.4446 28.4 67.4424 28.4 67.4402C28.4 67.438 28.4 67.4357 28.4 67.4335C28.4 67.4313 28.4 67.429 28.4 67.4268C28.4 67.4246 28.4 67.4223 28.4 67.4201C28.4 67.4179 28.4 67.4156 28.4 67.4134C28.4 67.4111 28.4 67.4089 28.4 67.4066C28.4 67.4044 28.4 67.4021 28.4 67.3999C28.4 67.3976 28.4 67.3954 28.4 67.3931C28.4 67.3909 28.4 67.3886 28.4 67.3864C28.4 67.3841 28.4 67.3819 28.4 67.3796C28.4 67.3773 28.4 67.3751 28.4 67.3728C28.4 67.3705 28.4 67.3683 28.4 67.366C28.4 67.3637 28.4 67.3615 28.4 67.3592C28.4 67.3569 28.4 67.3546 28.4 67.3523C28.4 67.3501 28.4 67.3478 28.4 67.3455C28.4 67.3432 28.4 67.3409 28.4 67.3386C28.4 67.3364 28.4 67.3341 28.4 67.3318C28.4 67.3295 28.4 67.3272 28.4 67.3249C28.4 67.3226 28.4 67.3203 28.4 67.318C28.4 67.3157 28.4 67.3134 28.4 67.3111C28.4 67.3088 28.4 67.3065 28.4 67.3042C28.4 67.3019 28.4 67.2996 28.4 67.2973C28.4 67.295 28.4 67.2926 28.4 67.2903C28.4 67.288 28.4 67.2857 28.4 67.2834C28.4 67.2811 28.4 67.2787 28.4 67.2764C28.4 67.2741 28.4 67.2718 28.4 67.2694C28.4 67.2671 28.4 67.2648 28.4 67.2624C28.4 67.2601 28.4 67.2578 28.4 67.2554C28.4 67.2531 28.4 67.2508 28.4 67.2484C28.4 67.2461 28.4 67.2438 28.4 67.2414C28.4 67.2391 28.4 67.2367 28.4 67.2344C28.4 67.232 28.4 67.2297 28.4 67.2273C28.4 67.225 28.4 67.2226 28.4 67.2203C28.4 67.2179 28.4 67.2155 28.4 67.2132C28.4 67.2108 28.4 67.2085 28.4 67.2061C28.4 67.2037 28.4 67.2014 28.4 67.199C28.4 67.1966 28.4 67.1943 28.4 67.1919C28.4 67.1895 28.4 67.1871 28.4 67.1848C28.4 67.1824 28.4 67.18 28.4 67.1776C28.4 67.1752 28.4 67.1729 28.4 67.1705C28.4 67.1681 28.4 67.1657 28.4 67.1633C28.4 67.1609 28.4 67.1585 28.4 67.1562C28.4 67.1538 28.4 67.1514 28.4 67.149C28.4 67.1466 28.4 67.1442 28.4 67.1418C28.4 67.1394 28.4 67.137 28.4 67.1346C28.4 67.1322 28.4 67.1298 28.4 67.1273C28.4 67.1249 28.4 67.1225 28.4 67.1201C28.4 67.1177 28.4 67.1153 28.4 67.1129C28.4 67.1105 28.4 67.108 28.4 67.1056C28.4 67.1032 28.4 67.1008 28.4 67.0983C28.4 67.0959 28.4 67.0935 28.4 67.0911C28.4 67.0886 28.4 67.0862 28.4 67.0838C28.4 67.0813 28.4 67.0789 28.4 67.0765C28.4 67.074 28.4 67.0716 28.4 67.0691C28.4 67.0667 28.4 67.0643 28.4 67.0618C28.4 67.0594 28.4 67.0569 28.4 67.0545C28.4 67.052 28.4 67.0496 28.4 67.0471C28.4 67.0447 28.4 67.0422 28.4 67.0397C28.4 67.0373 28.4 67.0348 28.4 67.0324C28.4 67.0299 28.4 67.0274 28.4 67.025C28.4 67.0225 28.4 67.02 28.4 67.0176C28.4 67.0151 28.4 67.0126 28.4 67.0102C28.4 67.0077 28.4 67.0052 28.4 67.0027C28.4 67.0003 28.4 66.9978 28.4 66.9953C28.4 66.9928 28.4 66.9903 28.4 66.9878C28.4 66.9854 28.4 66.9829 28.4 66.9804C28.4 66.9779 28.4 66.9754 28.4 66.9729C28.4 66.9704 28.4 66.9679 28.4 66.9654C28.4 66.9629 28.4 66.9604 28.4 66.9579C28.4 66.9554 28.4 66.9529 28.4 66.9504C28.4 66.9479 28.4 66.9454 28.4 66.9429C28.4 66.9404 28.4 66.9378 28.4 66.9353C28.4 66.9328 28.4 66.9303 28.4 66.9278C28.4 66.9253 28.4 66.9227 28.4 66.9202C28.4 66.9177 28.4 66.9152 28.4 66.9126C28.4 66.9101 28.4 66.9076 28.4 66.9051C28.4 66.9025 28.4 66.9 28.4 66.8975C28.4 66.8949 28.4 66.8924 28.4 66.8898C28.4 66.8873 28.4 66.8848 28.4 66.8822C28.4 66.8797 28.4 66.8771 28.4 66.8746C28.4 66.872 28.4 66.8695 28.4 66.8669C28.4 66.8644 28.4 66.8618 28.4 66.8593C28.4 66.8567 28.4 66.8542 28.4 66.8516C28.4 66.849 28.4 66.8465 28.4 66.8439C28.4 66.8414 28.4 66.8388 28.4 66.8362C28.4 66.8337 28.4 66.8311 28.4 66.8285C28.4 66.8259 28.4 66.8234 28.4 66.8208C28.4 66.8182 28.4 66.8156 28.4 66.8131C28.4 66.8105 28.4 66.8079 28.4 66.8053C28.4 66.8027 28.4 66.8001 28.4 66.7976C28.4 66.795 28.4 66.7924 28.4 66.7898C28.4 66.7872 28.4 66.7846 28.4 66.782C28.4 66.7794 28.4 66.7768 28.4 66.7742C28.4 66.7716 28.4 66.769 28.4 66.7664C28.4 66.7638 28.4 66.7612 28.4 66.7586C28.4 66.756 28.4 66.7534 28.4 66.7508C28.4 66.7481 28.4 66.7455 28.4 66.7429C28.4 66.7403 28.4 66.7377 28.4 66.7351C28.4 66.7324 28.4 66.7298 28.4 66.7272C28.4 66.7246 28.4 66.7219 28.4 66.7193C28.4 66.7167 28.4 66.7141 28.4 66.7114C28.4 66.7088 28.4 66.7062 28.4 66.7035C28.4 66.7009 28.4 66.6982 28.4 66.6956C28.4 66.693 28.4 66.6903 28.4 66.6877C28.4 66.685 28.4 66.6824 28.4 66.6797C28.4 66.6771 28.4 66.6744 28.4 66.6718C28.4 66.6691 28.4 66.6665 28.4 66.6638C28.4 66.6612 28.4 66.6585 28.4 66.6558C28.4 66.6532 28.4 66.6505 28.4 66.6478C28.4 66.6452 28.4 66.6425 28.4 66.6398C28.4 66.6372 28.4 66.6345 28.4 66.6318C28.4 66.6292 28.4 66.6265 28.4 66.6238C28.4 66.6211 28.4 66.6184 28.4 66.6158C28.4 66.6131 28.4 66.6104 28.4 66.6077C28.4 66.605 28.4 66.6023 28.4 66.5996C28.4 66.597 28.4 66.5943 28.4 66.5916C28.4 66.5889 28.4 66.5862 28.4 66.5835C28.4 66.5808 28.4 66.5781 28.4 66.5754C28.4 66.5727 28.4 66.57 28.4 66.5673C28.4 66.5646 28.4 66.5619 28.4 66.5592C28.4 66.5564 28.4 66.5537 28.4 66.551C28.4 66.5483 28.4 66.5456 28.4 66.5429C28.4 66.5402 28.4 66.5374 28.4 66.5347C28.4 66.532 28.4 66.5293 28.4 66.5265C28.4 66.5238 28.4 66.5211 28.4 66.5183C28.4 66.5156 28.4 66.5129 28.4 66.5102C28.4 66.5074 28.4 66.5047 28.4 66.5019C28.4 66.4992 28.4 66.4965 28.4 66.4937C28.4 66.491 28.4 66.4882 28.4 66.4855C28.4 66.4827 28.4 66.48 28.4 66.4772C28.4 66.4745 28.4 66.4717 28.4 66.469C28.4 66.4662 28.4 66.4635 28.4 66.4607C28.4 66.458 28.4 66.4552 28.4 66.4524C28.4 66.4497 28.4 66.4469 28.4 66.4441C28.4 66.4414 28.4 66.4386 28.4 66.4358C28.4 66.4331 28.4 66.4303 28.4 66.4275C28.4 66.4247 28.4 66.422 28.4 66.4192C28.4 66.4164 28.4 66.4136 28.4 66.4108C28.4 66.4081 28.4 66.4053 28.4 66.4025C28.4 66.3997 28.4 66.3969 28.4 66.3941C28.4 66.3913 28.4 66.3885 28.4 66.3857C28.4 66.3829 28.4 66.3801 28.4 66.3773C28.4 66.3745 28.4 66.3717 28.4 66.3689C28.4 66.3661 28.4 66.3633 28.4 66.3605C28.4 66.3577 28.4 66.3549 28.4 66.3521C28.4 66.3493 28.4 66.3465 28.4 66.3437C28.4 66.3408 28.4 66.338 28.4 66.3352C28.4 66.3324 28.4 66.3296 28.4 66.3267C28.4 66.3239 28.4 66.3211 28.4 66.3183C28.4 66.3154 28.4 66.3126 28.4 66.3098C28.4 66.3069 28.4 66.3041 28.4 66.3013C28.4 66.2984 28.4 66.2956 28.4 66.2927C28.4 66.2899 28.4 66.2871 28.4 66.2842C28.4 66.2814 28.4 66.2785 28.4 66.2757C28.4 66.2728 28.4 66.27 28.4 66.2671C28.4 66.2643 28.4 66.2614 28.4 66.2586C28.4 66.2557 28.4 66.2529 28.4 66.25C28.4 66.2471 28.4 66.2443 28.4 66.2414C28.4 66.2385 28.4 66.2357 28.4 66.2328C28.4 66.2299 28.4 66.2271 28.4 66.2242C28.4 66.2213 28.4 66.2184 28.4 66.2156C28.4 66.2127 28.4 66.2098 28.4 66.2069C28.4 66.204 28.4 66.2012 28.4 66.1983C28.4 66.1954 28.4 66.1925 28.4 66.1896C28.4 66.1867 28.4 66.1838 28.4 66.1809C28.4 66.1781 28.4 66.1752 28.4 66.1723C28.4 66.1694 28.4 66.1665 28.4 66.1636C28.4 66.1607 28.4 66.1578 28.4 66.1549C28.4 66.152 28.4 66.149 28.4 66.1461C28.4 66.1432 28.4 66.1403 28.4 66.1374C28.4 66.1345 28.4 66.1316 28.4 66.1287C28.4 66.1257 28.4 66.1228 28.4 66.1199C28.4 66.117 28.4 66.1141 28.4 66.1111C28.4 66.1082 28.4 66.1053 28.4 66.1023C28.4 66.0994 28.4 66.0965 28.4 66.0935C28.4 66.0906 28.4 66.0877 28.4 66.0847C28.4 66.0818 28.4 66.0789 28.4 66.0759C28.4 66.073 28.4 66.07 28.4 66.0671C28.4 66.0641 28.4 66.0612 28.4 66.0582C28.4 66.0553 28.4 66.0523 28.4 66.0494C28.4 66.0464 28.4 66.0435 28.4 66.0405C28.4 66.0376 28.4 66.0346 28.4 66.0316C28.4 66.0287 28.4 66.0257 28.4 66.0227C28.4 66.0198 28.4 66.0168 28.4 66.0138C28.4 66.0109 28.4 66.0079 28.4 66.0049C28.4 66.0019 28.4 65.999 28.4 65.996C28.4 65.993 28.4 65.99 28.4 65.9871C28.4 65.9841 28.4 65.9811 28.4 65.9781C28.4 65.9751 28.4 65.9721 28.4 65.9691C28.4 65.9661 28.4 65.9632 28.4 65.9602C28.4 65.9572 28.4 65.9542 28.4 65.9512C28.4 65.9482 28.4 65.9452 28.4 65.9422C28.4 65.9392 28.4 65.9361 28.4 65.9331C28.4 65.9301 28.4 65.9271 28.4 65.9241C28.4 65.9211 28.4 65.9181 28.4 65.9151C28.4 65.9121 28.4 65.909 28.4 65.906C28.4 65.903 28.4 65.9 28.4 65.897C28.4 65.8939 28.4 65.8909 28.4 65.8879C28.4 65.8849 28.4 65.8818 28.4 65.8788C28.4 65.8758 28.4 65.8727 28.4 65.8697C28.4 65.8667 28.4 65.8636 28.4 65.8606C28.4 65.8576 28.4 65.8545 28.4 65.8515C28.4 65.8484 28.4 65.8454 28.4 65.8423C28.4 65.8393 28.4 65.8362 28.4 65.8332C28.4 65.8301 28.4 65.8271 28.4 65.824C28.4 65.821 28.4 65.8179 28.4 65.8148C28.4 65.8118 28.4 65.8087 28.4 65.8057C28.4 65.8026 28.4 65.7995 28.4 65.7965C28.4 65.7934 28.4 65.7903 28.4 65.7872C28.4 65.7842 28.4 65.7811 28.4 65.778C28.4 65.7749 28.4 65.7719 28.4 65.7688C28.4 65.7657 28.4 65.7626 28.4 65.7595C28.4 65.7565 28.4 65.7534 28.4 65.7503C28.4 65.7472 28.4 65.7441 28.4 65.741C28.4 65.7379 28.4 65.7348 28.4 65.7317C28.4 65.7286 28.4 65.7255 28.4 65.7224C28.4 65.7193 28.4 65.7162 28.4 65.7131C28.4 65.71 28.4 65.7069 28.4 65.7038C28.4 65.7007 28.4 65.6976 28.4 65.6945C28.4 65.6914 28.4 65.6882 28.4 65.6851C28.4 65.682 28.4 65.6789 28.4 65.6758C28.4 65.6727 28.4 65.6695 28.4 65.6664C28.4 65.6633 28.4 65.6601 28.4 65.657C28.4 65.6539 28.4 65.6508 28.4 65.6476C28.4 65.6445 28.4 65.6414 28.4 65.6382C28.4 65.6351 28.4 65.632 28.4 65.6288C28.4 65.6257 28.4 65.6225 28.4 65.6194C28.4 65.6162 28.4 65.6131 28.4 65.6099C28.4 65.6068 28.4 65.6036 28.4 65.6005C28.4 65.5973 28.4 65.5942 28.4 65.591C28.4 65.5879 28.4 65.5847 28.4 65.5815C28.4 65.5784 28.4 65.5752 28.4 65.572C28.4 65.5689 28.4 65.5657 28.4 65.5625C28.4 65.5594 28.4 65.5562 28.4 65.553C28.4 65.5499 28.4 65.5467 28.4 65.5435C28.4 65.5403 28.4 65.5371 28.4 65.534C28.4 65.5308 28.4 65.5276 28.4 65.5244C28.4 65.5212 28.4 65.518 28.4 65.5148C28.4 65.5117 28.4 65.5085 28.4 65.5053C28.4 65.5021 28.4 65.4989 28.4 65.4957C28.4 65.4925 28.4 65.4893 28.4 65.4861C28.4 65.4829 28.4 65.4797 28.4 65.4765C28.4 65.4733 28.4 65.47 28.4 65.4668C28.4 65.4636 28.4 65.4604 28.4 65.4572C28.4 65.454 28.4 65.4508 28.4 65.4475C28.4 65.4443 28.4 65.4411 28.4 65.4379C28.4 65.4347 28.4 65.4314 28.4 65.4282C28.4 65.425 28.4 65.4218 28.4 65.4185C28.4 65.4153 28.4 65.4121 28.4 65.4088C28.4 65.4056 28.4 65.4024 28.4 65.3991C28.4 65.3959 28.4 65.3926 28.4 65.3894C28.4 65.3862 28.4 65.3829 28.4 65.3797C28.4 65.3764 28.4 65.3732 28.4 65.3699C28.4 65.3667 28.4 65.3634 28.4 65.3602C28.4 65.3569 28.4 65.3536 28.4 65.3504C28.4 65.3471 28.4 65.3439 28.4 65.3406C28.4 65.3373 28.4 65.3341 28.4 65.3308C28.4 65.3275 28.4 65.3243 28.4 65.321C28.4 65.3177 28.4 65.3144 28.4 65.3112C28.4 65.3079 28.4 65.3046 28.4 65.3013C28.4 65.2981 28.4 65.2948 28.4 65.2915C28.4 65.2882 28.4 65.2849 28.4 65.2816C28.4 65.2784 28.4 65.2751 28.4 65.2718C28.4 65.2685 28.4 65.2652 28.4 65.2619C28.4 65.2586 28.4 65.2553 28.4 65.252C28.4 65.2487 28.4 65.2454 28.4 65.2421C28.4 65.2388 28.4 65.2355 28.4 65.2322C28.4 65.2289 28.4 65.2255 28.4 65.2222C28.4 65.2189 28.4 65.2156 28.4 65.2123C28.4 65.209 28.4 65.2057 28.4 65.2023C28.4 65.199 28.4 65.1957 28.4 65.1924C28.4 65.189 28.4 65.1857 28.4 65.1824C28.4 65.1791 28.4 65.1757 28.4 65.1724C28.4 65.1691 28.4 65.1657 28.4 65.1624C28.4 65.1591 28.4 65.1557 28.4 65.1524C28.4 65.149 28.4 65.1457 28.4 65.1424C28.4 65.139 28.4 65.1357 28.4 65.1323C28.4 65.129 28.4 65.1256 28.4 65.1223C28.4 65.1189 28.4 65.1156 28.4 65.1122C28.4 65.1088 28.4 65.1055 28.4 65.1021C28.4 65.0988 28.4 65.0954 28.4 65.092C28.4 65.0887 28.4 65.0853 28.4 65.0819C28.4 65.0786 28.4 65.0752 28.4 65.0718C28.4 65.0684 28.4 65.0651 28.4 65.0617C28.4 65.0583 28.4 65.0549 28.4 65.0516C28.4 65.0482 28.4 65.0448 28.4 65.0414H24.4C24.4 65.0448 24.4 65.0482 24.4 65.0516C24.4 65.0549 24.4 65.0583 24.4 65.0617C24.4 65.0651 24.4 65.0684 24.4 65.0718C24.4 65.0752 24.4 65.0786 24.4 65.0819C24.4 65.0853 24.4 65.0887 24.4 65.092C24.4 65.0954 24.4 65.0988 24.4 65.1021C24.4 65.1055 24.4 65.1088 24.4 65.1122C24.4 65.1156 24.4 65.1189 24.4 65.1223C24.4 65.1256 24.4 65.129 24.4 65.1323C24.4 65.1357 24.4 65.139 24.4 65.1424C24.4 65.1457 24.4 65.149 24.4 65.1524C24.4 65.1557 24.4 65.1591 24.4 65.1624C24.4 65.1657 24.4 65.1691 24.4 65.1724C24.4 65.1757 24.4 65.1791 24.4 65.1824C24.4 65.1857 24.4 65.189 24.4 65.1924C24.4 65.1957 24.4 65.199 24.4 65.2023C24.4 65.2057 24.4 65.209 24.4 65.2123C24.4 65.2156 24.4 65.2189 24.4 65.2222C24.4 65.2255 24.4 65.2289 24.4 65.2322C24.4 65.2355 24.4 65.2388 24.4 65.2421C24.4 65.2454 24.4 65.2487 24.4 65.252C24.4 65.2553 24.4 65.2586 24.4 65.2619C24.4 65.2652 24.4 65.2685 24.4 65.2718C24.4 65.2751 24.4 65.2784 24.4 65.2816C24.4 65.2849 24.4 65.2882 24.4 65.2915C24.4 65.2948 24.4 65.2981 24.4 65.3013C24.4 65.3046 24.4 65.3079 24.4 65.3112C24.4 65.3144 24.4 65.3177 24.4 65.321C24.4 65.3243 24.4 65.3275 24.4 65.3308C24.4 65.3341 24.4 65.3373 24.4 65.3406C24.4 65.3439 24.4 65.3471 24.4 65.3504C24.4 65.3536 24.4 65.3569 24.4 65.3602C24.4 65.3634 24.4 65.3667 24.4 65.3699C24.4 65.3732 24.4 65.3764 24.4 65.3797C24.4 65.3829 24.4 65.3862 24.4 65.3894C24.4 65.3926 24.4 65.3959 24.4 65.3991C24.4 65.4024 24.4 65.4056 24.4 65.4088C24.4 65.4121 24.4 65.4153 24.4 65.4185C24.4 65.4218 24.4 65.425 24.4 65.4282C24.4 65.4314 24.4 65.4347 24.4 65.4379C24.4 65.4411 24.4 65.4443 24.4 65.4475C24.4 65.4508 24.4 65.454 24.4 65.4572C24.4 65.4604 24.4 65.4636 24.4 65.4668C24.4 65.47 24.4 65.4733 24.4 65.4765C24.4 65.4797 24.4 65.4829 24.4 65.4861C24.4 65.4893 24.4 65.4925 24.4 65.4957C24.4 65.4989 24.4 65.5021 24.4 65.5053C24.4 65.5085 24.4 65.5117 24.4 65.5148C24.4 65.518 24.4 65.5212 24.4 65.5244C24.4 65.5276 24.4 65.5308 24.4 65.534C24.4 65.5371 24.4 65.5403 24.4 65.5435C24.4 65.5467 24.4 65.5499 24.4 65.553C24.4 65.5562 24.4 65.5594 24.4 65.5625C24.4 65.5657 24.4 65.5689 24.4 65.572C24.4 65.5752 24.4 65.5784 24.4 65.5815C24.4 65.5847 24.4 65.5879 24.4 65.591C24.4 65.5942 24.4 65.5973 24.4 65.6005C24.4 65.6036 24.4 65.6068 24.4 65.6099C24.4 65.6131 24.4 65.6162 24.4 65.6194C24.4 65.6225 24.4 65.6257 24.4 65.6288C24.4 65.632 24.4 65.6351 24.4 65.6382C24.4 65.6414 24.4 65.6445 24.4 65.6476C24.4 65.6508 24.4 65.6539 24.4 65.657C24.4 65.6601 24.4 65.6633 24.4 65.6664C24.4 65.6695 24.4 65.6727 24.4 65.6758C24.4 65.6789 24.4 65.682 24.4 65.6851C24.4 65.6882 24.4 65.6914 24.4 65.6945C24.4 65.6976 24.4 65.7007 24.4 65.7038C24.4 65.7069 24.4 65.71 24.4 65.7131C24.4 65.7162 24.4 65.7193 24.4 65.7224C24.4 65.7255 24.4 65.7286 24.4 65.7317C24.4 65.7348 24.4 65.7379 24.4 65.741C24.4 65.7441 24.4 65.7472 24.4 65.7503C24.4 65.7534 24.4 65.7565 24.4 65.7595C24.4 65.7626 24.4 65.7657 24.4 65.7688C24.4 65.7719 24.4 65.7749 24.4 65.778C24.4 65.7811 24.4 65.7842 24.4 65.7872C24.4 65.7903 24.4 65.7934 24.4 65.7965C24.4 65.7995 24.4 65.8026 24.4 65.8057C24.4 65.8087 24.4 65.8118 24.4 65.8148C24.4 65.8179 24.4 65.821 24.4 65.824C24.4 65.8271 24.4 65.8301 24.4 65.8332C24.4 65.8362 24.4 65.8393 24.4 65.8423C24.4 65.8454 24.4 65.8484 24.4 65.8515C24.4 65.8545 24.4 65.8576 24.4 65.8606C24.4 65.8636 24.4 65.8667 24.4 65.8697C24.4 65.8727 24.4 65.8758 24.4 65.8788C24.4 65.8818 24.4 65.8849 24.4 65.8879C24.4 65.8909 24.4 65.8939 24.4 65.897C24.4 65.9 24.4 65.903 24.4 65.906C24.4 65.909 24.4 65.9121 24.4 65.9151C24.4 65.9181 24.4 65.9211 24.4 65.9241C24.4 65.9271 24.4 65.9301 24.4 65.9331C24.4 65.9361 24.4 65.9392 24.4 65.9422C24.4 65.9452 24.4 65.9482 24.4 65.9512C24.4 65.9542 24.4 65.9572 24.4 65.9602C24.4 65.9632 24.4 65.9661 24.4 65.9691C24.4 65.9721 24.4 65.9751 24.4 65.9781C24.4 65.9811 24.4 65.9841 24.4 65.9871C24.4 65.99 24.4 65.993 24.4 65.996C24.4 65.999 24.4 66.0019 24.4 66.0049C24.4 66.0079 24.4 66.0109 24.4 66.0138C24.4 66.0168 24.4 66.0198 24.4 66.0227C24.4 66.0257 24.4 66.0287 24.4 66.0316C24.4 66.0346 24.4 66.0376 24.4 66.0405C24.4 66.0435 24.4 66.0464 24.4 66.0494C24.4 66.0523 24.4 66.0553 24.4 66.0582C24.4 66.0612 24.4 66.0641 24.4 66.0671C24.4 66.07 24.4 66.073 24.4 66.0759C24.4 66.0789 24.4 66.0818 24.4 66.0847C24.4 66.0877 24.4 66.0906 24.4 66.0935C24.4 66.0965 24.4 66.0994 24.4 66.1023C24.4 66.1053 24.4 66.1082 24.4 66.1111C24.4 66.1141 24.4 66.117 24.4 66.1199C24.4 66.1228 24.4 66.1257 24.4 66.1287C24.4 66.1316 24.4 66.1345 24.4 66.1374C24.4 66.1403 24.4 66.1432 24.4 66.1461C24.4 66.149 24.4 66.152 24.4 66.1549C24.4 66.1578 24.4 66.1607 24.4 66.1636C24.4 66.1665 24.4 66.1694 24.4 66.1723C24.4 66.1752 24.4 66.1781 24.4 66.1809C24.4 66.1838 24.4 66.1867 24.4 66.1896C24.4 66.1925 24.4 66.1954 24.4 66.1983C24.4 66.2012 24.4 66.204 24.4 66.2069C24.4 66.2098 24.4 66.2127 24.4 66.2156C24.4 66.2184 24.4 66.2213 24.4 66.2242C24.4 66.2271 24.4 66.2299 24.4 66.2328C24.4 66.2357 24.4 66.2385 24.4 66.2414C24.4 66.2443 24.4 66.2471 24.4 66.25C24.4 66.2529 24.4 66.2557 24.4 66.2586C24.4 66.2614 24.4 66.2643 24.4 66.2671C24.4 66.27 24.4 66.2728 24.4 66.2757C24.4 66.2785 24.4 66.2814 24.4 66.2842C24.4 66.2871 24.4 66.2899 24.4 66.2927C24.4 66.2956 24.4 66.2984 24.4 66.3013C24.4 66.3041 24.4 66.3069 24.4 66.3098C24.4 66.3126 24.4 66.3154 24.4 66.3183C24.4 66.3211 24.4 66.3239 24.4 66.3267C24.4 66.3296 24.4 66.3324 24.4 66.3352C24.4 66.338 24.4 66.3408 24.4 66.3437C24.4 66.3465 24.4 66.3493 24.4 66.3521C24.4 66.3549 24.4 66.3577 24.4 66.3605C24.4 66.3633 24.4 66.3661 24.4 66.3689C24.4 66.3717 24.4 66.3745 24.4 66.3773C24.4 66.3801 24.4 66.3829 24.4 66.3857C24.4 66.3885 24.4 66.3913 24.4 66.3941C24.4 66.3969 24.4 66.3997 24.4 66.4025C24.4 66.4053 24.4 66.4081 24.4 66.4108C24.4 66.4136 24.4 66.4164 24.4 66.4192C24.4 66.422 24.4 66.4247 24.4 66.4275C24.4 66.4303 24.4 66.4331 24.4 66.4358C24.4 66.4386 24.4 66.4414 24.4 66.4441C24.4 66.4469 24.4 66.4497 24.4 66.4524C24.4 66.4552 24.4 66.458 24.4 66.4607C24.4 66.4635 24.4 66.4662 24.4 66.469C24.4 66.4717 24.4 66.4745 24.4 66.4772C24.4 66.48 24.4 66.4827 24.4 66.4855C24.4 66.4882 24.4 66.491 24.4 66.4937C24.4 66.4965 24.4 66.4992 24.4 66.5019C24.4 66.5047 24.4 66.5074 24.4 66.5102C24.4 66.5129 24.4 66.5156 24.4 66.5183C24.4 66.5211 24.4 66.5238 24.4 66.5265C24.4 66.5293 24.4 66.532 24.4 66.5347C24.4 66.5374 24.4 66.5402 24.4 66.5429C24.4 66.5456 24.4 66.5483 24.4 66.551C24.4 66.5537 24.4 66.5564 24.4 66.5592C24.4 66.5619 24.4 66.5646 24.4 66.5673C24.4 66.57 24.4 66.5727 24.4 66.5754C24.4 66.5781 24.4 66.5808 24.4 66.5835C24.4 66.5862 24.4 66.5889 24.4 66.5916C24.4 66.5943 24.4 66.597 24.4 66.5996C24.4 66.6023 24.4 66.605 24.4 66.6077C24.4 66.6104 24.4 66.6131 24.4 66.6158C24.4 66.6184 24.4 66.6211 24.4 66.6238C24.4 66.6265 24.4 66.6292 24.4 66.6318C24.4 66.6345 24.4 66.6372 24.4 66.6398C24.4 66.6425 24.4 66.6452 24.4 66.6478C24.4 66.6505 24.4 66.6532 24.4 66.6558C24.4 66.6585 24.4 66.6612 24.4 66.6638C24.4 66.6665 24.4 66.6691 24.4 66.6718C24.4 66.6744 24.4 66.6771 24.4 66.6797C24.4 66.6824 24.4 66.685 24.4 66.6877C24.4 66.6903 24.4 66.693 24.4 66.6956C24.4 66.6982 24.4 66.7009 24.4 66.7035C24.4 66.7062 24.4 66.7088 24.4 66.7114C24.4 66.7141 24.4 66.7167 24.4 66.7193C24.4 66.7219 24.4 66.7246 24.4 66.7272C24.4 66.7298 24.4 66.7324 24.4 66.7351C24.4 66.7377 24.4 66.7403 24.4 66.7429C24.4 66.7455 24.4 66.7481 24.4 66.7508C24.4 66.7534 24.4 66.756 24.4 66.7586C24.4 66.7612 24.4 66.7638 24.4 66.7664C24.4 66.769 24.4 66.7716 24.4 66.7742C24.4 66.7768 24.4 66.7794 24.4 66.782C24.4 66.7846 24.4 66.7872 24.4 66.7898C24.4 66.7924 24.4 66.795 24.4 66.7976C24.4 66.8001 24.4 66.8027 24.4 66.8053C24.4 66.8079 24.4 66.8105 24.4 66.8131C24.4 66.8156 24.4 66.8182 24.4 66.8208C24.4 66.8234 24.4 66.8259 24.4 66.8285C24.4 66.8311 24.4 66.8337 24.4 66.8362C24.4 66.8388 24.4 66.8414 24.4 66.8439C24.4 66.8465 24.4 66.849 24.4 66.8516C24.4 66.8542 24.4 66.8567 24.4 66.8593C24.4 66.8618 24.4 66.8644 24.4 66.8669C24.4 66.8695 24.4 66.872 24.4 66.8746C24.4 66.8771 24.4 66.8797 24.4 66.8822C24.4 66.8848 24.4 66.8873 24.4 66.8898C24.4 66.8924 24.4 66.8949 24.4 66.8975C24.4 66.9 24.4 66.9025 24.4 66.9051C24.4 66.9076 24.4 66.9101 24.4 66.9126C24.4 66.9152 24.4 66.9177 24.4 66.9202C24.4 66.9227 24.4 66.9253 24.4 66.9278C24.4 66.9303 24.4 66.9328 24.4 66.9353C24.4 66.9378 24.4 66.9404 24.4 66.9429C24.4 66.9454 24.4 66.9479 24.4 66.9504C24.4 66.9529 24.4 66.9554 24.4 66.9579C24.4 66.9604 24.4 66.9629 24.4 66.9654C24.4 66.9679 24.4 66.9704 24.4 66.9729C24.4 66.9754 24.4 66.9779 24.4 66.9804C24.4 66.9829 24.4 66.9854 24.4 66.9878C24.4 66.9903 24.4 66.9928 24.4 66.9953C24.4 66.9978 24.4 67.0003 24.4 67.0027C24.4 67.0052 24.4 67.0077 24.4 67.0102C24.4 67.0126 24.4 67.0151 24.4 67.0176C24.4 67.02 24.4 67.0225 24.4 67.025C24.4 67.0274 24.4 67.0299 24.4 67.0324C24.4 67.0348 24.4 67.0373 24.4 67.0397C24.4 67.0422 24.4 67.0447 24.4 67.0471C24.4 67.0496 24.4 67.052 24.4 67.0545C24.4 67.0569 24.4 67.0594 24.4 67.0618C24.4 67.0643 24.4 67.0667 24.4 67.0691C24.4 67.0716 24.4 67.074 24.4 67.0765C24.4 67.0789 24.4 67.0813 24.4 67.0838C24.4 67.0862 24.4 67.0886 24.4 67.0911C24.4 67.0935 24.4 67.0959 24.4 67.0983C24.4 67.1008 24.4 67.1032 24.4 67.1056C24.4 67.108 24.4 67.1105 24.4 67.1129C24.4 67.1153 24.4 67.1177 24.4 67.1201C24.4 67.1225 24.4 67.1249 24.4 67.1273C24.4 67.1298 24.4 67.1322 24.4 67.1346C24.4 67.137 24.4 67.1394 24.4 67.1418C24.4 67.1442 24.4 67.1466 24.4 67.149C24.4 67.1514 24.4 67.1538 24.4 67.1562C24.4 67.1585 24.4 67.1609 24.4 67.1633C24.4 67.1657 24.4 67.1681 24.4 67.1705C24.4 67.1729 24.4 67.1752 24.4 67.1776C24.4 67.18 24.4 67.1824 24.4 67.1848C24.4 67.1871 24.4 67.1895 24.4 67.1919C24.4 67.1943 24.4 67.1966 24.4 67.199C24.4 67.2014 24.4 67.2037 24.4 67.2061C24.4 67.2085 24.4 67.2108 24.4 67.2132C24.4 67.2155 24.4 67.2179 24.4 67.2203C24.4 67.2226 24.4 67.225 24.4 67.2273C24.4 67.2297 24.4 67.232 24.4 67.2344C24.4 67.2367 24.4 67.2391 24.4 67.2414C24.4 67.2438 24.4 67.2461 24.4 67.2484C24.4 67.2508 24.4 67.2531 24.4 67.2554C24.4 67.2578 24.4 67.2601 24.4 67.2624C24.4 67.2648 24.4 67.2671 24.4 67.2694C24.4 67.2718 24.4 67.2741 24.4 67.2764C24.4 67.2787 24.4 67.2811 24.4 67.2834C24.4 67.2857 24.4 67.288 24.4 67.2903C24.4 67.2926 24.4 67.295 24.4 67.2973C24.4 67.2996 24.4 67.3019 24.4 67.3042C24.4 67.3065 24.4 67.3088 24.4 67.3111C24.4 67.3134 24.4 67.3157 24.4 67.318C24.4 67.3203 24.4 67.3226 24.4 67.3249C24.4 67.3272 24.4 67.3295 24.4 67.3318C24.4 67.3341 24.4 67.3364 24.4 67.3386C24.4 67.3409 24.4 67.3432 24.4 67.3455C24.4 67.3478 24.4 67.3501 24.4 67.3523C24.4 67.3546 24.4 67.3569 24.4 67.3592C24.4 67.3615 24.4 67.3637 24.4 67.366C24.4 67.3683 24.4 67.3705 24.4 67.3728C24.4 67.3751 24.4 67.3773 24.4 67.3796C24.4 67.3819 24.4 67.3841 24.4 67.3864C24.4 67.3886 24.4 67.3909 24.4 67.3931C24.4 67.3954 24.4 67.3976 24.4 67.3999C24.4 67.4021 24.4 67.4044 24.4 67.4066C24.4 67.4089 24.4 67.4111 24.4 67.4134C24.4 67.4156 24.4 67.4179 24.4 67.4201C24.4 67.4223 24.4 67.4246 24.4 67.4268C24.4 67.429 24.4 67.4313 24.4 67.4335C24.4 67.4357 24.4 67.438 24.4 67.4402C24.4 67.4424 24.4 67.4446 24.4 67.4468C24.4 67.4491 24.4 67.4513 24.4 67.4535C24.4 67.4557 24.4 67.4579 24.4 67.4602C24.4 67.4624 24.4 67.4646 24.4 67.4668C24.4 67.469 24.4 67.4712 24.4 67.4734C24.4 67.4756 24.4 67.4778 24.4 67.48C24.4 67.4822 24.4 67.4844 24.4 67.4866C24.4 67.4888 24.4 67.491 24.4 67.4932C24.4 67.4954 24.4 67.4976 24.4 67.4998C24.4 67.502 24.4 67.5042 24.4 67.5063C24.4 67.5085 24.4 67.5107 24.4 67.5129C24.4 67.5151 24.4 67.5173 24.4 67.5194C24.4 67.5216 24.4 67.5238 24.4 67.5259C24.4 67.5281 24.4 67.5303 24.4 67.5325C24.4 67.5346 24.4 67.5368 24.4 67.539C24.4 67.5411 24.4 67.5433 24.4 67.5454C24.4 67.5476 24.4 67.5498 24.4 67.5519C24.4 67.5541 24.4 67.5562 24.4 67.5584C24.4 67.5605 24.4 67.5627 24.4 67.5648C24.4 67.567 24.4 67.5691 24.4 67.5713C24.4 67.5734 24.4 67.5756 24.4 67.5777C24.4 67.5798 24.4 67.582 24.4 67.5841C24.4 67.5863 24.4 67.5884 24.4 67.5905C24.4 67.5927 24.4 67.5948 24.4 67.5969C24.4 67.599 24.4 67.6012 24.4 67.6033C24.4 67.6054 24.4 67.6075 24.4 67.6097C24.4 67.6118 24.4 67.6139 24.4 67.616C24.4 67.6181 24.4 67.6202 24.4 67.6224C24.4 67.6245 24.4 67.6266 24.4 67.6287C24.4 67.6308 24.4 67.6329 24.4 67.635C24.4 67.6371 24.4 67.6392 24.4 67.6413C24.4 67.6434 24.4 67.6455 24.4 67.6476C24.4 67.6497 24.4 67.6518 24.4 67.6539C24.4 67.656 24.4 67.6581 24.4 67.6601C24.4 67.6622 24.4 67.6643 24.4 67.6664C24.4 67.6685 24.4 67.6706 24.4 67.6726C24.4 67.6747 24.4 67.6768 24.4 67.6789C24.4 67.681 24.4 67.683 24.4 67.6851C24.4 67.6872 24.4 67.6892 24.4 67.6913C24.4 67.6934 24.4 67.6954 24.4 67.6975C24.4 67.6996 24.4 67.7016 24.4 67.7037C24.4 67.7057 24.4 67.7078 24.4 67.7099C24.4 67.7119 24.4 67.714 24.4 67.716C24.4 67.7181 24.4 67.7201 24.4 67.7222C24.4 67.7242 24.4 67.7262 24.4 67.7283C24.4 67.7303 24.4 67.7324 24.4 67.7344C24.4 67.7365 24.4 67.7385 24.4 67.7405C24.4 67.7426 24.4 67.7446 24.4 67.7466C24.4 67.7487 24.4 67.7507 24.4 67.7527C24.4 67.7547 24.4 67.7568 24.4 67.7588C24.4 67.7608 24.4 67.7628 24.4 67.7648C24.4 67.7669 24.4 67.7689 24.4 67.7709C24.4 67.7729 24.4 67.7749 24.4 67.7769C24.4 67.7789 24.4 67.7809 24.4 67.783C24.4 67.785 24.4 67.787 24.4 67.789C24.4 67.791 24.4 67.793 24.4 67.795C24.4 67.797 24.4 67.799 24.4 67.8009C24.4 67.8029 24.4 67.8049 24.4 67.8069C24.4 67.8089 24.4 67.8109 24.4 67.8129C24.4 67.8149 24.4 67.8169 24.4 67.8188C24.4 67.8208 24.4 67.8228 24.4 67.8248C24.4 67.8268 24.4 67.8287 24.4 67.8307C24.4 67.8327 24.4 67.8346 24.4 67.8366C24.4 67.8386 24.4 67.8406 24.4 67.8425C24.4 67.8445 24.4 67.8465 24.4 67.8484C24.4 67.8504 24.4 67.8523 24.4 67.8543C24.4 67.8562 24.4 67.8582 24.4 67.8602C24.4 67.8621 24.4 67.8641 24.4 67.866C24.4 67.868 24.4 67.8699 24.4 67.8718C24.4 67.8738 24.4 67.8757 24.4 67.8777C24.4 67.8796 24.4 67.8816 24.4 67.8835C24.4 67.8854 24.4 67.8874 24.4 67.8893C24.4 67.8912 24.4 67.8932 24.4 67.8951C24.4 67.897 24.4 67.8989 24.4 67.9009C24.4 67.9028 24.4 67.9047 24.4 67.9066C24.4 67.9086 24.4 67.9105 24.4 67.9124C24.4 67.9143 24.4 67.9162 24.4 67.9181C24.4 67.9201 24.4 67.922 24.4 67.9239C24.4 67.9258 24.4 67.9277 24.4 67.9296C24.4 67.9315 24.4 67.9334 24.4 67.9353C24.4 67.9372 24.4 67.9391 24.4 67.941C24.4 67.9429 24.4 67.9448 24.4 67.9467C24.4 67.9486 24.4 67.9505 24.4 67.9523C24.4 67.9542 24.4 67.9561 24.4 67.958C24.4 67.9599 24.4 67.9618 24.4 67.9636C24.4 67.9655 24.4 67.9674 24.4 67.9693C24.4 67.9712 24.4 67.973 24.4 67.9749C24.4 67.9768 24.4 67.9786 24.4 67.9805C24.4 67.9824 24.4 67.9842 24.4 67.9861C24.4 67.988 24.4 67.9898 24.4 67.9917C24.4 67.9936 24.4 67.9954 24.4 67.9973C24.4 67.9991 24.4 68.001 24.4 68.0028C24.4 68.0047 24.4 68.0065 24.4 68.0084C24.4 68.0102 24.4 68.0121 24.4 68.0139C24.4 68.0158 24.4 68.0176 24.4 68.0194C24.4 68.0213 24.4 68.0231 24.4 68.0249C24.4 68.0268 24.4 68.0286 24.4 68.0304C24.4 68.0323 24.4 68.0341 24.4 68.0359C24.4 68.0378 24.4 68.0396 24.4 68.0414C24.4 68.0432 24.4 68.0451 24.4 68.0469C24.4 68.0487 24.4 68.0505 24.4 68.0523C24.4 68.0541 24.4 68.0559 24.4 68.0578C24.4 68.0596 24.4 68.0614 24.4 68.0632C24.4 68.065 24.4 68.0668 24.4 68.0686C24.4 68.0704 24.4 68.0722 24.4 68.074C24.4 68.0758 24.4 68.0776 24.4 68.0794C24.4 68.0812 24.4 68.083 24.4 68.0848C24.4 68.0866 24.4 68.0883 24.4 68.0901C24.4 68.0919 24.4 68.0937 24.4 68.0955C24.4 68.0973 24.4 68.099 24.4 68.1008C24.4 68.1026 24.4 68.1044 24.4 68.1061C24.4 68.1079 24.4 68.1097 24.4 68.1115C24.4 68.1132 24.4 68.115 24.4 68.1168C24.4 68.1185 24.4 68.1203 24.4 68.1221C24.4 68.1238 24.4 68.1256 24.4 68.1273C24.4 68.1291 24.4 68.1309 24.4 68.1326C24.4 68.1344 24.4 68.1361 24.4 68.1379C24.4 68.1396 24.4 68.1414 24.4 68.1431C24.4 68.1449 24.4 68.1466 24.4 68.1483C24.4 68.1501 24.4 68.1518 24.4 68.1536C24.4 68.1553 24.4 68.157 24.4 68.1588C24.4 68.1605 24.4 68.1622 24.4 68.164C24.4 68.1657 24.4 68.1674 24.4 68.1691C24.4 68.1709 24.4 68.1726 24.4 68.1743C24.4 68.176 24.4 68.1777 24.4 68.1795C24.4 68.1812 24.4 68.1829 24.4 68.1846C24.4 68.1863 24.4 68.188 24.4 68.1897C24.4 68.1915 24.4 68.1932 24.4 68.1949C24.4 68.1966 24.4 68.1983 24.4 68.2C24.4 68.2017 24.4 68.2034 24.4 68.2051C24.4 68.2068 24.4 68.2085 24.4 68.2102C24.4 68.2118 24.4 68.2135 24.4 68.2152C24.4 68.2169 24.4 68.2186 24.4 68.2203C24.4 68.222 24.4 68.2237 24.4 68.2253C24.4 68.227 24.4 68.2287 24.4 68.2304C24.4 68.232 24.4 68.2337 24.4 68.2354C24.4 68.2371 24.4 68.2387 24.4 68.2404C24.4 68.2421 24.4 68.2437 24.4 68.2454C24.4 68.2471 24.4 68.2487 24.4 68.2504C24.4 68.2521 24.4 68.2537 24.4 68.2554C24.4 68.257 24.4 68.2587 24.4 68.2603C24.4 68.262 24.4 68.2636 24.4 68.2653C24.4 68.2669 24.4 68.2686 24.4 68.2702C24.4 68.2719 24.4 68.2735 24.4 68.2751C24.4 68.2768 24.4 68.2784 24.4 68.2801C24.4 68.2817 24.4 68.2833 24.4 68.285C24.4 68.2866 24.4 68.2882 24.4 68.2898C24.4 68.2915 24.4 68.2931 24.4 68.2947C24.4 68.2963 24.4 68.298 24.4 68.2996C24.4 68.3012 24.4 68.3028 24.4 68.3044C24.4 68.3061 24.4 68.3077 24.4 68.3093C24.4 68.3109 24.4 68.3125 24.4 68.3141C24.4 68.3157 24.4 68.3173 24.4 68.3189C24.4 68.3205 24.4 68.3221 24.4 68.3237C24.4 68.3253 24.4 68.3269 24.4 68.3285C24.4 68.3301 24.4 68.3317 24.4 68.3333C24.4 68.3349 24.4 68.3365 24.4 68.3381C24.4 68.3396 24.4 68.3412 24.4 68.3428C24.4 68.3444 24.4 68.346 24.4 68.3476C24.4 68.3491 24.4 68.3507 24.4 68.3523C24.4 68.3539 24.4 68.3554 24.4 68.357C24.4 68.3586 24.4 68.3601 24.4 68.3617C24.4 68.3633 24.4 68.3648 24.4 68.3664C24.4 68.368 24.4 68.3695 24.4 68.3711C24.4 68.3726 24.4 68.3742 24.4 68.3758C24.4 68.3773 24.4 68.3789 24.4 68.3804C24.4 68.382 24.4 68.3835 24.4 68.3851C24.4 68.3866 24.4 68.3881 24.4 68.3897C24.4 68.3912 24.4 68.3928 24.4 68.3943C24.4 68.3959 24.4 68.3974 24.4 68.3989C24.4 68.4005 24.4 68.402 24.4 68.4035C24.4 68.405 24.4 68.4066 24.4 68.4081C24.4 68.4096 24.4 68.4111 24.4 68.4127C24.4 68.4142 24.4 68.4157 24.4 68.4172C24.4 68.4187 24.4 68.4203 24.4 68.4218C24.4 68.4233 24.4 68.4248 24.4 68.4263C24.4 68.4278 24.4 68.4293 24.4 68.4308C24.4 68.4323 24.4 68.4338 24.4 68.4353C24.4 68.4368 24.4 68.4383 24.4 68.4398C24.4 68.4413 24.4 68.4428 24.4 68.4443C24.4 68.4458 24.4 68.4473 24.4 68.4488C24.4 68.4503 24.4 68.4518 24.4 68.4533C24.4 68.4548 24.4 68.4562 24.4 68.4577C24.4 68.4592 24.4 68.4607 24.4 68.4622C24.4 68.4636 24.4 68.4651 24.4 68.4666C24.4 68.468 24.4 68.4695 24.4 68.471C24.4 68.4725 24.4 68.4739 24.4 68.4754C24.4 68.4769 24.4 68.4783 24.4 68.4798C24.4 68.4812 24.4 68.4827 24.4 68.4842C24.4 68.4856 24.4 68.4871 24.4 68.4885C24.4 68.49 24.4 68.4914 24.4 68.4929C24.4 68.4943 24.4 68.4958 24.4 68.4972C24.4 68.4987 24.4 68.5001 24.4 68.5015C24.4 68.503 24.4 68.5044 24.4 68.5059C24.4 68.5073 24.4 68.5087 24.4 68.5102C24.4 68.5116 24.4 68.513 24.4 68.5144C24.4 68.5159 24.4 68.5173 24.4 68.5187C24.4 68.5201 24.4 68.5216 24.4 68.523C24.4 68.5244 24.4 68.5258 24.4 68.5272C24.4 68.5287 24.4 68.5301 24.4 68.5315C24.4 68.5329 24.4 68.5343 24.4 68.5357C24.4 68.5371 24.4 68.5385 24.4 68.5399C24.4 68.5413 24.4 68.5427 24.4 68.5441C24.4 68.5455 24.4 68.5469 24.4 68.5483C24.4 68.5497 24.4 68.5511 24.4 68.5525C24.4 68.5539 24.4 68.5553 24.4 68.5567C24.4 68.5581 24.4 68.5595 24.4 68.5608C24.4 68.5622 24.4 68.5636 24.4 68.565C24.4 68.5664 24.4 68.5677 24.4 68.5691C24.4 68.5705 24.4 68.5719 24.4 68.5732C24.4 68.5746 24.4 68.576 24.4 68.5773C24.4 68.5787 24.4 68.5801 24.4 68.5814C24.4 68.5828 24.4 68.5842 24.4 68.5855C24.4 68.5869 24.4 68.5882 24.4 68.5896C24.4 68.591 24.4 68.5923 24.4 68.5937C24.4 68.595 24.4 68.5964 24.4 68.5977C24.4 68.599 24.4 68.6004 24.4 68.6017C24.4 68.6031 24.4 68.6044 24.4 68.6058C24.4 68.6071 24.4 68.6084 24.4 68.6098C24.4 68.6111 24.4 68.6124 24.4 68.6138C24.4 68.6151 24.4 68.6164 24.4 68.6177C24.4 68.6191 24.4 68.6204 24.4 68.6217C24.4 68.623 24.4 68.6244 24.4 68.6257C24.4 68.627 24.4 68.6283 24.4 68.6296C24.4 68.6309 24.4 68.6323 24.4 68.6336C24.4 68.6349 24.4 68.6362 24.4 68.6375C24.4 68.6388 24.4 68.6401 24.4 68.6414H28.4ZM28.4 65.0414C28.4 63.333 28.4329 61.4209 28.499 59.3039L24.501 59.1789C24.4338 61.3285 24.4 63.2831 24.4 65.0414H28.4ZM28.499 59.3039C28.5656 57.1748 28.632 55.2808 28.6984 53.6213L24.7016 53.4615C24.6346 55.1353 24.5678 57.0413 24.501 59.1789L28.499 59.3039ZM25.1886 52.2315C24.3451 53.2049 23.5778 54.0351 22.8858 54.7272L25.7142 57.5556C26.4888 56.781 27.3216 55.8779 28.2114 54.8513L25.1886 52.2315ZM22.8201 54.7961C22.2165 55.46 21.5875 56.0585 20.9335 56.5935L23.4665 59.6893C24.2792 59.0244 25.0502 58.2894 25.7799 57.4868L22.8201 54.7961ZM20.9253 56.6003L12.8253 63.3003L15.3747 66.3825L23.4747 59.6825L20.9253 56.6003ZM15.6518 63.5797L5.65184 51.2797L2.54816 53.8031L12.5482 66.1031L15.6518 63.5797ZM5.36475 54.0907L29.8648 34.0907L27.3352 30.9921L2.83525 50.9921L5.36475 54.0907ZM28.6 34.5414H46V30.5414H28.6V34.5414ZM44 32.5414V103.941H48V32.5414H44Z" fill="#0461FD"/>
</svg>
