<svg width="63" height="132" viewBox="0 0 63 132" fill="none" xmlns="http://www.w3.org/2000/svg">
<path d="M7.4 76.7414C7.4 72.6747 7.7 68.6081 8.3 64.5414C8.9 60.4747 9.96667 56.6414 11.5 53.0414C13.0333 49.4414 15.2 46.2747 18 43.5414C20.8 40.7414 24.3667 38.5414 28.7 36.9414C33.1 35.3414 38.4667 34.5414 44.8 34.5414C46.2 34.5414 47.9 34.6414 49.9 34.8414C51.9667 34.9747 53.6667 35.1414 55 35.3414V50.4414C53.6667 50.1747 52.1667 49.9747 50.5 49.8414C48.8333 49.6414 46.8 49.5414 44.4 49.5414C39.6 49.5414 35.8 50.2747 33 51.7414C30.2 53.1414 28.1667 55.2081 26.9 57.9414C25.7 60.6081 25 63.8414 24.8 67.6414H25.4C26.6667 65.3081 28.3667 63.3414 30.5 61.7414C32.7 60.1414 35.7 59.3414 39.5 59.3414C45.7667 59.3414 50.6667 61.3747 54.2 65.4414C57.7333 69.4414 59.5 75.1414 59.5 82.5414C59.5 90.5414 57.2333 96.7747 52.7 101.241C48.2333 105.708 42.1 107.941 34.3 107.941C29.2333 107.941 24.6667 106.841 20.6 104.641C16.5333 102.375 13.3 98.9414 10.9 94.3414C8.56667 89.7414 7.4 83.8747 7.4 76.7414ZM33.9 92.6414C35.9667 92.6414 37.6333 91.8747 38.9 90.3414C40.1667 88.7414 40.8 86.2747 40.8 82.9414C40.8 80.2081 40.2667 78.0747 39.2 76.5414C38.1333 75.0081 36.4333 74.2414 34.1 74.2414C31.7 74.2414 29.8333 75.0414 28.5 76.6414C27.2333 78.2414 26.6 80.0081 26.6 81.9414C26.6 83.6081 26.8333 85.2747 27.3 86.9414C27.8333 88.6081 28.6333 89.9747 29.7 91.0414C30.8333 92.1081 32.2333 92.6414 33.9 92.6414Z" fill="#0461FD"/>
<path d="M3.4 73.7414C3.4 69.6747 3.7 65.6081 4.3 61.5414C4.9 57.4747 5.96667 53.6414 7.5 50.0414C9.03333 46.4414 11.2 43.2747 14 40.5414C16.8 37.7414 20.3667 35.5414 24.7 33.9414C29.1 32.3414 34.4667 31.5414 40.8 31.5414C42.2 31.5414 43.9 31.6414 45.9 31.8414C47.9667 31.9747 49.6667 32.1414 51 32.3414V47.4414C49.6667 47.1747 48.1667 46.9747 46.5 46.8414C44.8333 46.6414 42.8 46.5414 40.4 46.5414C35.6 46.5414 31.8 47.2747 29 48.7414C26.2 50.1414 24.1667 52.2081 22.9 54.9414C21.7 57.6081 21 60.8414 20.8 64.6414H21.4C22.6667 62.3081 24.3667 60.3414 26.5 58.7414C28.7 57.1414 31.7 56.3414 35.5 56.3414C41.7667 56.3414 46.6667 58.3747 50.2 62.4414C53.7333 66.4414 55.5 72.1414 55.5 79.5414C55.5 87.5414 53.2333 93.7747 48.7 98.2414C44.2333 102.708 38.1 104.941 30.3 104.941C25.2333 104.941 20.6667 103.841 16.6 101.641C12.5333 99.3747 9.3 95.9414 6.9 91.3414C4.56667 86.7414 3.4 80.8747 3.4 73.7414ZM29.9 89.6414C31.9667 89.6414 33.6333 88.8747 34.9 87.3414C36.1667 85.7414 36.8 83.2747 36.8 79.9414C36.8 77.2081 36.2667 75.0747 35.2 73.5414C34.1333 72.0081 32.4333 71.2414 30.1 71.2414C27.7 71.2414 25.8333 72.0414 24.5 73.6414C23.2333 75.2414 22.6 77.0081 22.6 78.9414C22.6 80.6081 22.8333 82.2747 23.3 83.9414C23.8333 85.6081 24.6333 86.9747 25.7 88.0414C26.8333 89.1081 28.2333 89.6414 29.9 89.6414Z" fill="white"/>
<path d="M4.3 61.5414L2.32142 61.2495L4.3 61.5414ZM7.5 50.0414L5.65995 49.2577L7.5 50.0414ZM14 40.5414L15.3971 41.9726C15.4028 41.9669 15.4085 41.9613 15.4142 41.9556L14 40.5414ZM24.7 33.9414L24.0165 32.0618L24.0073 32.0652L24.7 33.9414ZM45.9 31.8414L45.701 33.8315C45.7244 33.8338 45.7478 33.8357 45.7712 33.8373L45.9 31.8414ZM51 32.3414H53C53 31.3514 52.2757 30.5104 51.2967 30.3635L51 32.3414ZM51 47.4414L50.6078 49.4026C51.1953 49.5201 51.8046 49.368 52.268 48.9881C52.7314 48.6082 53 48.0406 53 47.4414H51ZM46.5 46.8414L46.2617 48.8272C46.2879 48.8303 46.3142 48.8329 46.3405 48.835L46.5 46.8414ZM29 48.7414L29.8944 50.5303C29.9057 50.5246 29.9169 50.5189 29.928 50.5131L29 48.7414ZM22.9 54.9414L21.0854 54.1005C21.0823 54.1072 21.0792 54.1139 21.0762 54.1207L22.9 54.9414ZM20.8 64.6414L18.8028 64.5363C18.7739 65.0842 18.9715 65.6199 19.3491 66.018C19.7267 66.416 20.2513 66.6414 20.8 66.6414V64.6414ZM21.4 64.6414V66.6414C22.1333 66.6414 22.8078 66.2401 23.1577 65.5956L21.4 64.6414ZM26.5 58.7414L25.3237 57.1239C25.3157 57.1297 25.3078 57.1355 25.3 57.1414L26.5 58.7414ZM50.2 62.4414L48.6903 63.7531C48.6938 63.7573 48.6974 63.7614 48.7011 63.7655L50.2 62.4414ZM48.7 98.2414L47.2963 96.8168C47.2928 96.8202 47.2893 96.8237 47.2858 96.8272L48.7 98.2414ZM16.6 101.641L15.6263 103.388C15.6336 103.392 15.641 103.396 15.6484 103.4L16.6 101.641ZM6.9 91.3414L5.11635 92.2462C5.1198 92.253 5.1233 92.2598 5.12683 92.2665L6.9 91.3414ZM34.9 87.3414L36.4419 88.6152C36.4508 88.6045 36.4595 88.5937 36.4681 88.5828L34.9 87.3414ZM24.5 73.6414L22.9636 72.361C22.9528 72.3739 22.9423 72.3869 22.9319 72.4L24.5 73.6414ZM23.3 83.9414L21.3741 84.4807C21.3807 84.5042 21.3877 84.5277 21.3952 84.551L23.3 83.9414ZM25.7 88.0414L24.2858 89.4556C24.3001 89.4699 24.3146 89.484 24.3293 89.4978L25.7 88.0414ZM5.4 73.7414C5.4 69.7735 5.69269 65.8044 6.27858 61.8333L2.32142 61.2495C1.70731 65.4118 1.4 69.576 1.4 73.7414H5.4ZM6.27858 61.8333C6.85488 57.9273 7.87703 54.26 9.34005 50.8251L5.65995 49.2577C4.0563 53.0228 2.94512 57.0222 2.32142 61.2495L6.27858 61.8333ZM9.34005 50.8251C10.7699 47.4681 12.786 44.5214 15.3971 41.9726L12.6029 39.1103C9.61398 42.028 7.29676 45.4147 5.65995 49.2577L9.34005 50.8251ZM15.4142 41.9556C17.9786 39.3912 21.2856 37.3341 25.3927 35.8176L24.0073 32.0652C19.4477 33.7487 15.6214 36.0916 12.5858 39.1272L15.4142 41.9556ZM25.3835 35.821C29.5023 34.3233 34.6229 33.5414 40.8 33.5414V29.5414C34.3104 29.5414 28.6977 30.3596 24.0165 32.0618L25.3835 35.821ZM40.8 33.5414C42.1119 33.5414 43.7413 33.6355 45.701 33.8315L46.099 29.8513C44.0587 29.6473 42.2882 29.5414 40.8 29.5414V33.5414ZM45.7712 33.8373C47.808 33.9687 49.4468 34.1308 50.7033 34.3193L51.2967 30.3635C49.8866 30.152 48.1253 29.9808 46.0288 29.8456L45.7712 33.8373ZM49 32.3414V47.4414H53V32.3414H49ZM51.3922 45.4802C49.967 45.1952 48.3873 44.986 46.6595 44.8478L46.3405 48.835C47.946 48.9635 49.3664 49.1543 50.6078 49.4026L51.3922 45.4802ZM46.7383 44.8556C44.967 44.6431 42.8489 44.5414 40.4 44.5414V48.5414C42.7511 48.5414 44.6997 48.6397 46.2617 48.8272L46.7383 44.8556ZM40.4 44.5414C35.43 44.5414 31.2687 45.2952 28.072 46.9697L29.928 50.5131C32.3313 49.2542 35.77 48.5414 40.4 48.5414V44.5414ZM28.1056 46.9525C24.9175 48.5466 22.5505 50.939 21.0854 54.1005L24.7146 55.7823C25.7829 53.4771 27.4825 51.7362 29.8944 50.5303L28.1056 46.9525ZM21.0762 54.1207C19.7491 57.0698 19.0121 60.5598 18.8028 64.5363L22.7972 64.7465C22.9879 61.123 23.6509 58.1464 24.7238 55.7621L21.0762 54.1207ZM20.8 66.6414H21.4V62.6414H20.8V66.6414ZM23.1577 65.5956C24.2865 63.5163 25.7958 61.7695 27.7 60.3414L25.3 57.1414C22.9375 58.9133 21.0469 61.0999 19.6423 63.6872L23.1577 65.5956ZM27.6763 60.3589C29.4227 59.0888 31.9594 58.3414 35.5 58.3414V54.3414C31.4406 54.3414 27.9773 55.194 25.3237 57.1239L27.6763 60.3589ZM35.5 58.3414C41.2921 58.3414 45.6004 60.1969 48.6903 63.7531L51.7097 61.1297C47.733 56.5526 42.2413 54.3414 35.5 54.3414V58.3414ZM48.7011 63.7655C51.8054 67.2798 53.5 72.4406 53.5 79.5414H57.5C57.5 71.8423 55.6613 65.603 51.699 61.1173L48.7011 63.7655ZM53.5 79.5414C53.5 87.1513 51.3557 92.8171 47.2963 96.8168L50.1037 99.6661C55.111 94.7324 57.5 87.9315 57.5 79.5414H53.5ZM47.2858 96.8272C43.2783 100.835 37.7017 102.941 30.3 102.941V106.941C38.4984 106.941 45.1884 104.581 50.1142 99.6556L47.2858 96.8272ZM30.3 102.941C25.5331 102.941 21.2987 101.909 17.5516 99.8823L15.6484 103.4C20.0347 105.773 24.9336 106.941 30.3 106.941V102.941ZM17.5737 99.8944C13.8863 97.8392 10.914 94.7112 8.67317 90.4163L5.12683 92.2665C7.68599 97.1716 11.1803 100.91 15.6263 103.388L17.5737 99.8944ZM8.68365 90.4367C6.53635 86.2034 5.4 80.6741 5.4 73.7414H1.4C1.4 81.0754 2.59698 87.2794 5.11635 92.2462L8.68365 90.4367ZM29.9 91.6414C32.5363 91.6414 34.7785 90.6288 36.4419 88.6152L33.3581 86.0676C32.4882 87.1207 31.397 87.6414 29.9 87.6414V91.6414ZM36.4681 88.5828C38.1431 86.467 38.8 83.4617 38.8 79.9414H34.8C34.8 83.0878 34.1903 85.0158 33.3319 86.1L36.4681 88.5828ZM38.8 79.9414C38.8 76.9798 38.2268 74.3902 36.8418 72.3993L33.5582 74.6835C34.3065 75.7592 34.8 77.4364 34.8 79.9414H38.8ZM36.8418 72.3993C35.3075 70.1936 32.9045 69.2414 30.1 69.2414V73.2414C31.9622 73.2414 32.9592 73.8225 33.5582 74.6835L36.8418 72.3993ZM30.1 69.2414C27.2075 69.2414 24.7371 70.2328 22.9636 72.361L26.0364 74.9218C26.9295 73.8501 28.1926 73.2414 30.1 73.2414V69.2414ZM22.9319 72.4C21.4022 74.3322 20.6 76.5312 20.6 78.9414H24.6C24.6 77.4849 25.0644 76.1506 26.0681 74.8828L22.9319 72.4ZM20.6 78.9414C20.6 80.7973 20.8602 82.6452 21.3741 84.4807L25.2259 83.4021C24.8065 81.9042 24.6 80.4189 24.6 78.9414H20.6ZM21.3952 84.551C22.01 86.4724 22.9603 88.1301 24.2858 89.4556L27.1142 86.6272C26.3064 85.8194 25.6566 84.7437 25.2048 83.3319L21.3952 84.551ZM24.3293 89.4978C25.8615 90.9399 27.7635 91.6414 29.9 91.6414V87.6414C28.7032 87.6414 27.8052 87.2763 27.0707 86.585L24.3293 89.4978Z" fill="#0461FD"/>
</svg>
