<svg width="63" height="132" viewBox="0 0 63 132" fill="none" xmlns="http://www.w3.org/2000/svg">
<path d="M56.4 51.0414C56.4 54.4414 55.6667 57.3747 54.2 59.8414C52.7333 62.2414 50.8 64.2414 48.4 65.8414C46.0667 67.3747 43.4667 68.5414 40.6 69.3414V69.6414C46.3333 70.3081 50.7333 72.0414 53.8 74.8414C56.9333 77.5747 58.5 81.4747 58.5 86.5414C58.5 90.4081 57.4333 93.9747 55.3 97.2414C53.2333 100.508 50 103.108 45.6 105.041C41.2667 106.975 35.6333 107.941 28.7 107.941C24.1 107.941 20.1667 107.608 16.9 106.941C13.6333 106.208 10.4667 105.241 7.4 104.041V88.0414C10.5333 89.6414 13.7333 90.8414 17 91.6414C20.2667 92.3747 23.2333 92.7414 25.9 92.7414C30.6333 92.7414 33.8333 92.0747 35.5 90.7414C37.2333 89.4081 38.1 87.6081 38.1 85.3414C38.1 83.7414 37.6667 82.3747 36.8 81.2414C36 80.0414 34.5 79.1414 32.3 78.5414C30.1667 77.9414 27.0333 77.6414 22.9 77.6414H18.5V63.1414H23C28.4667 63.1414 32.2667 62.4414 34.4 61.0414C36.6 59.6414 37.7 57.8414 37.7 55.6414C37.7 53.7081 36.9667 52.3081 35.5 51.4414C34.0333 50.5081 32.1 50.0414 29.7 50.0414C27.5667 50.0414 25.5333 50.3414 23.6 50.9414C21.7333 51.5414 20.1 52.2081 18.7 52.9414C17.3 53.6081 16.2333 54.1747 15.5 54.6414L7.5 41.7414C10.4333 39.7414 13.8 38.0414 17.6 36.6414C21.4667 35.2414 26.5 34.5414 32.7 34.5414C40.0333 34.5414 45.8 36.0081 50 38.9414C54.2667 41.8747 56.4 45.9081 56.4 51.0414Z" fill="#0461FD"/>
<path d="M52.4 48.0414C52.4 51.4414 51.6667 54.3747 50.2 56.8414C48.7333 59.2414 46.8 61.2414 44.4 62.8414C42.0667 64.3747 39.4667 65.5414 36.6 66.3414V66.6414C42.3333 67.3081 46.7333 69.0414 49.8 71.8414C52.9333 74.5747 54.5 78.4747 54.5 83.5414C54.5 87.4081 53.4333 90.9747 51.3 94.2414C49.2333 97.5081 46 100.108 41.6 102.041C37.2667 103.975 31.6333 104.941 24.7 104.941C20.1 104.941 16.1667 104.608 12.9 103.941C9.63333 103.208 6.46667 102.241 3.4 101.041V85.0414C6.53333 86.6414 9.73333 87.8414 13 88.6414C16.2667 89.3747 19.2333 89.7414 21.9 89.7414C26.6333 89.7414 29.8333 89.0747 31.5 87.7414C33.2333 86.4081 34.1 84.6081 34.1 82.3414C34.1 80.7414 33.6667 79.3747 32.8 78.2414C32 77.0414 30.5 76.1414 28.3 75.5414C26.1667 74.9414 23.0333 74.6414 18.9 74.6414H14.5V60.1414H19C24.4667 60.1414 28.2667 59.4414 30.4 58.0414C32.6 56.6414 33.7 54.8414 33.7 52.6414C33.7 50.7081 32.9667 49.3081 31.5 48.4414C30.0333 47.5081 28.1 47.0414 25.7 47.0414C23.5667 47.0414 21.5333 47.3414 19.6 47.9414C17.7333 48.5414 16.1 49.2081 14.7 49.9414C13.3 50.6081 12.2333 51.1747 11.5 51.6414L3.5 38.7414C6.43333 36.7414 9.8 35.0414 13.6 33.6414C17.4667 32.2414 22.5 31.5414 28.7 31.5414C36.0333 31.5414 41.8 33.0081 46 35.9414C50.2667 38.8747 52.4 42.9081 52.4 48.0414Z" fill="white"/>
<path d="M50.2 56.8414L51.9066 57.8843C51.9108 57.8774 51.9149 57.8705 51.9191 57.8636L50.2 56.8414ZM44.4 62.8414L45.4984 64.5129L45.5094 64.5055L44.4 62.8414ZM36.6 66.3414L36.0624 64.415C35.1979 64.6563 34.6 65.4439 34.6 66.3414H36.6ZM36.6 66.6414H34.6C34.6 67.6566 35.3606 68.5108 36.369 68.628L36.6 66.6414ZM49.8 71.8414L48.4515 73.3184C48.4626 73.3286 48.4739 73.3386 48.4853 73.3485L49.8 71.8414ZM51.3 94.2414L49.6255 93.1478C49.6202 93.1559 49.615 93.164 49.6098 93.1721L51.3 94.2414ZM41.6 102.041L40.7954 100.21L40.7851 100.215L41.6 102.041ZM12.9 103.941L12.4619 105.893C12.4746 105.896 12.4873 105.898 12.5001 105.901L12.9 103.941ZM3.4 101.041H1.4C1.4 101.865 1.90451 102.604 2.6712 102.904L3.4 101.041ZM3.4 85.0414L4.30955 83.2602C3.68954 82.9436 2.9495 82.9722 2.35576 83.3357C1.76201 83.6992 1.4 84.3452 1.4 85.0414H3.4ZM13 88.6414L12.5243 90.584C12.5368 90.5871 12.5493 90.59 12.5619 90.5928L13 88.6414ZM31.5 87.7414L30.2806 86.1562C30.2705 86.1639 30.2605 86.1717 30.2506 86.1797L31.5 87.7414ZM32.8 78.2414L31.1359 79.3508C31.1599 79.3868 31.185 79.422 31.2113 79.4563L32.8 78.2414ZM28.3 75.5414L27.7585 77.4667C27.7636 77.4681 27.7687 77.4695 27.7738 77.4709L28.3 75.5414ZM14.5 74.6414H12.5C12.5 75.746 13.3954 76.6414 14.5 76.6414V74.6414ZM14.5 60.1414V58.1414C13.3954 58.1414 12.5 59.0368 12.5 60.1414H14.5ZM30.4 58.0414L29.3263 56.3541C29.3184 56.3591 29.3105 56.3642 29.3027 56.3693L30.4 58.0414ZM31.5 48.4414L30.4263 50.1287C30.4448 50.1405 30.4636 50.1521 30.4825 50.1633L31.5 48.4414ZM19.6 47.9414L19.0072 46.0313C19.0008 46.0333 18.9944 46.0353 18.988 46.0373L19.6 47.9414ZM14.7 49.9414L15.5599 51.7471C15.5828 51.7362 15.6055 51.7249 15.628 51.7131L14.7 49.9414ZM11.5 51.6414L9.80031 52.6955C10.082 53.1497 10.5338 53.4723 11.0548 53.5912C11.5759 53.7102 12.1229 53.6157 12.5738 53.3287L11.5 51.6414ZM3.5 38.7414L2.37333 37.089C1.48853 37.6922 1.23592 38.8854 1.80031 39.7955L3.5 38.7414ZM13.6 33.6414L12.9191 31.7608L12.9086 31.7647L13.6 33.6414ZM46 35.9414L44.8548 37.5811C44.8589 37.5839 44.8629 37.5867 44.8669 37.5895L46 35.9414ZM50.4 48.0414C50.4 51.1486 49.7323 53.7147 48.4809 55.8193L51.9191 57.8636C53.6011 55.0347 54.4 51.7342 54.4 48.0414H50.4ZM48.4934 55.7985C47.1823 57.9441 45.4551 59.7343 43.2906 61.1773L45.5094 64.5055C48.1449 62.7485 50.2844 60.5387 51.9066 57.8843L48.4934 55.7985ZM43.3016 61.17C41.152 62.5826 38.7432 63.6669 36.0624 64.415L37.1376 68.2678C40.1901 67.4159 42.9813 66.1668 45.4984 64.5128L43.3016 61.17ZM34.6 66.3414V66.6414H38.6V66.3414H34.6ZM36.369 68.628C41.8438 69.2646 45.7945 70.8925 48.4515 73.3184L51.1485 70.3644C47.6721 67.1903 42.8228 65.3515 36.831 64.6548L36.369 68.628ZM48.4853 73.3485C51.0893 75.6201 52.5 78.915 52.5 83.5414H56.5C56.5 78.0345 54.7774 73.5293 51.1147 70.3343L48.4853 73.3485ZM52.5 83.5414C52.5 87.016 51.5485 90.2032 49.6255 93.1478L52.9745 95.335C55.3182 91.7462 56.5 87.8002 56.5 83.5414H52.5ZM49.6098 93.1721C47.8027 96.0286 44.9201 98.398 40.7955 100.21L42.4045 103.872C47.0799 101.818 50.664 98.9875 52.9902 95.3107L49.6098 93.1721ZM40.7851 100.215C36.7982 101.994 31.4714 102.941 24.7 102.941V106.941C31.7952 106.941 37.7351 105.956 42.4149 103.868L40.7851 100.215ZM24.7 102.941C20.1877 102.941 16.396 102.614 13.2999 101.982L12.5001 105.901C15.9373 106.602 20.0123 106.941 24.7 106.941V102.941ZM13.3381 101.99C10.1688 101.279 7.09939 100.341 4.1288 99.1789L2.6712 102.904C5.83394 104.141 9.09788 105.138 12.4619 105.893L13.3381 101.99ZM5.4 101.041V85.0414H1.4V101.041H5.4ZM2.49045 86.8226C5.75531 88.4898 9.10047 89.7455 12.5243 90.584L13.4757 86.6988C10.3662 85.9373 7.31136 84.793 4.30955 83.2602L2.49045 86.8226ZM12.5619 90.5928C15.9376 91.3507 19.0542 91.7414 21.9 91.7414V87.7414C19.4125 87.7414 16.5957 87.3988 13.4381 86.69L12.5619 90.5928ZM21.9 91.7414C24.3485 91.7414 26.4788 91.57 28.2579 91.1994C30.017 90.8329 31.5745 90.243 32.7494 89.3031L30.2506 86.1797C29.7588 86.5731 28.883 86.9832 27.4421 87.2834C26.0212 87.5795 24.1848 87.7414 21.9 87.7414V91.7414ZM32.7194 89.3267C34.9655 87.5989 36.1 85.2025 36.1 82.3414H32.1C32.1 84.0136 31.5011 85.2173 30.2806 86.1562L32.7194 89.3267ZM36.1 82.3414C36.1 80.3584 35.5543 78.5508 34.3887 77.0265L31.2113 79.4563C31.779 80.1987 32.1 81.1244 32.1 82.3414H36.1ZM34.4641 77.132C33.2785 75.3536 31.2354 74.2689 28.8262 73.6119L27.7738 77.4709C29.7646 78.0139 30.7215 78.7292 31.1359 79.3508L34.4641 77.132ZM28.8415 73.6161C26.4404 72.9408 23.0875 72.6414 18.9 72.6414V76.6414C22.9792 76.6414 25.893 76.942 27.7585 77.4667L28.8415 73.6161ZM18.9 72.6414H14.5V76.6414H18.9V72.6414ZM16.5 74.6414V60.1414H12.5V74.6414H16.5ZM14.5 62.1414H19V58.1414H14.5V62.1414ZM19 62.1414C24.5015 62.1414 28.8322 61.4625 31.4973 59.7135L29.3027 56.3693C27.7011 57.4204 24.4318 58.1414 19 58.1414V62.1414ZM31.4738 59.7287C34.1263 58.0408 35.7 55.6607 35.7 52.6414H31.7C31.7 54.0221 31.0737 55.242 29.3263 56.3541L31.4738 59.7287ZM35.7 52.6414C35.7 50.1149 34.6853 48.0005 32.5175 46.7196L30.4825 50.1633C31.2481 50.6156 31.7 51.3013 31.7 52.6414H35.7ZM32.5738 46.7541C30.6859 45.5527 28.3409 45.0414 25.7 45.0414V49.0414C27.8591 49.0414 29.3807 49.4634 30.4263 50.1287L32.5738 46.7541ZM25.7 45.0414C23.3765 45.0414 21.1426 45.3686 19.0072 46.0313L20.1928 49.8515C21.9241 49.3142 23.7568 49.0414 25.7 49.0414V45.0414ZM18.988 46.0373C17.0372 46.6644 15.2941 47.3725 13.772 48.1697L15.628 51.7131C16.906 51.0437 18.4295 50.4184 20.212 49.8455L18.988 46.0373ZM13.8401 48.1357C12.4139 48.8148 11.2618 49.4224 10.4262 49.9541L12.5738 53.3287C13.2049 52.9271 14.1861 52.4013 15.5599 51.7471L13.8401 48.1357ZM13.1997 50.5873L5.19969 37.6873L1.80031 39.7955L9.80031 52.6955L13.1997 50.5873ZM4.62667 40.3939C7.40725 38.498 10.624 36.8692 14.2914 35.5181L12.9086 31.7647C8.97597 33.2136 5.45942 34.9848 2.37333 37.089L4.62667 40.3939ZM14.2809 35.5219C17.848 34.2304 22.6263 33.5414 28.7 33.5414V29.5414C22.3737 29.5414 17.0853 30.2524 12.9191 31.7609L14.2809 35.5219ZM28.7 33.5414C35.7934 33.5414 41.1071 34.9636 44.8548 37.5811L47.1452 34.3017C42.4929 31.0525 36.2733 29.5414 28.7 29.5414V33.5414ZM44.8669 37.5895C48.5965 40.1536 50.4 43.5735 50.4 48.0414H54.4C54.4 42.2427 51.9368 37.5959 47.1331 34.2933L44.8669 37.5895Z" fill="#0461FD"/>
</svg>
