<svg width="63" height="132" viewBox="0 0 63 132" fill="none" xmlns="http://www.w3.org/2000/svg">
<path d="M58.8 106.941H7V94.2414L24.4 76.6414C28 72.8414 30.8 69.8081 32.8 67.5414C34.8667 65.2747 36.3 63.3414 37.1 61.7414C37.9 60.1414 38.3 58.4747 38.3 56.7414C38.3 54.6081 37.6 53.0747 36.2 52.1414C34.8667 51.2081 33.2667 50.7414 31.4 50.7414C29.1333 50.7414 26.8667 51.3747 24.6 52.6414C22.3333 53.9081 19.7333 55.8081 16.8 58.3414L6.2 45.9414C8.33333 44.0081 10.6 42.1747 13 40.4414C15.4667 38.7081 18.3333 37.3081 21.6 36.2414C24.8667 35.1081 28.8667 34.5414 33.6 34.5414C38.4667 34.5414 42.6667 35.4081 46.2 37.1414C49.7333 38.8081 52.4667 41.1081 54.4 44.0414C56.4 46.9747 57.4 50.3081 57.4 54.0414C57.4 58.1747 56.6333 61.8747 55.1 65.1414C53.6333 68.3414 51.3667 71.5747 48.3 74.8414C45.3 78.0414 41.5333 81.7081 37 85.8414L31.8 90.5414V91.0414H58.8V106.941Z" fill="#0461FD"/>
<path d="M54.8 103.941H3V91.2414L20.4 73.6414C24 69.8414 26.8 66.8081 28.8 64.5414C30.8667 62.2747 32.3 60.3414 33.1 58.7414C33.9 57.1414 34.3 55.4747 34.3 53.7414C34.3 51.6081 33.6 50.0747 32.2 49.1414C30.8667 48.2081 29.2667 47.7414 27.4 47.7414C25.1333 47.7414 22.8667 48.3747 20.6 49.6414C18.3333 50.9081 15.7333 52.8081 12.8 55.3414L2.2 42.9414C4.33333 41.0081 6.6 39.1747 9 37.4414C11.4667 35.7081 14.3333 34.3081 17.6 33.2414C20.8667 32.1081 24.8667 31.5414 29.6 31.5414C34.4667 31.5414 38.6667 32.4081 42.2 34.1414C45.7333 35.8081 48.4667 38.1081 50.4 41.0414C52.4 43.9747 53.4 47.3081 53.4 51.0414C53.4 55.1747 52.6333 58.8747 51.1 62.1414C49.6333 65.3414 47.3667 68.5747 44.3 71.8414C41.3 75.0414 37.5333 78.7081 33 82.8414L27.8 87.5414V88.0414H54.8V103.941Z" fill="white"/>
<path d="M54.8 103.941V105.941C55.9046 105.941 56.8 105.046 56.8 103.941H54.8ZM3 103.941H1C1 105.046 1.89543 105.941 3 105.941L3 103.941ZM3 91.2414L1.57773 89.8353C1.20759 90.2097 1 90.7149 1 91.2414H3ZM20.4 73.6414L21.8223 75.0475C21.8323 75.0374 21.8421 75.0272 21.8519 75.0169L20.4 73.6414ZM28.8 64.5414L27.3221 63.1939C27.3148 63.2019 27.3075 63.21 27.3003 63.2182L28.8 64.5414ZM33.1 58.7414L34.8889 59.6358L34.8889 59.6358L33.1 58.7414ZM32.2 49.1414L31.0531 50.7799C31.0655 50.7886 31.078 50.7971 31.0906 50.8055L32.2 49.1414ZM20.6 49.6414L21.5756 51.3873V51.3873L20.6 49.6414ZM12.8 55.3414L11.2798 56.641C11.6256 57.0455 12.1183 57.2955 12.649 57.3357C13.1797 57.3759 13.7045 57.2029 14.1072 56.855L12.8 55.3414ZM2.2 42.9414L0.85696 41.4594C0.0552008 42.186 -0.0233163 43.4185 0.679758 44.241L2.2 42.9414ZM9 37.4414L7.85011 35.805C7.84305 35.81 7.83602 35.815 7.82902 35.82L9 37.4414ZM17.6 33.2414L18.2208 35.1426C18.2324 35.1388 18.244 35.1349 18.2555 35.1309L17.6 33.2414ZM42.2 34.1414L41.3192 35.937C41.3283 35.9415 41.3375 35.9459 41.3468 35.9503L42.2 34.1414ZM50.4 41.0414L48.7301 42.142C48.7358 42.1508 48.7417 42.1594 48.7475 42.1681L50.4 41.0414ZM51.1 62.1414L49.2895 61.2916C49.287 61.2971 49.2844 61.3026 49.2819 61.3081L51.1 62.1414ZM44.3 71.8414L42.8419 70.4725L42.8409 70.4735L44.3 71.8414ZM33 82.8414L34.3411 84.3252L34.3475 84.3193L33 82.8414ZM27.8 87.5414L26.4589 86.0577C26.0394 86.4368 25.8 86.9759 25.8 87.5414H27.8ZM27.8 88.0414H25.8C25.8 89.146 26.6954 90.0414 27.8 90.0414V88.0414ZM54.8 88.0414H56.8C56.8 86.9368 55.9046 86.0414 54.8 86.0414V88.0414ZM54.8 101.941H3V105.941H54.8V101.941ZM5 103.941V91.2414H1V103.941H5ZM4.42227 92.6475L21.8223 75.0475L18.9777 72.2353L1.57773 89.8353L4.42227 92.6475ZM21.8519 75.0169C25.4583 71.2102 28.2768 68.1572 30.2997 65.8646L27.3003 63.2182C25.3232 65.4589 22.5417 68.4726 18.9481 72.2659L21.8519 75.0169ZM30.2779 65.8889C32.3937 63.5684 33.9684 61.4767 34.8889 59.6358L31.3111 57.847C30.6316 59.2061 29.3397 60.9811 27.3221 63.1939L30.2779 65.8889ZM34.8889 59.6358C35.8231 57.7673 36.3 55.7953 36.3 53.7414H32.3C32.3 55.1541 31.9769 56.5155 31.3111 57.847L34.8889 59.6358ZM36.3 53.7414C36.3 51.1414 35.4152 48.8812 33.3094 47.4773L31.0906 50.8055C31.7848 51.2683 32.3 52.0747 32.3 53.7414H36.3ZM33.3469 47.5029C31.6297 46.3009 29.6146 45.7414 27.4 45.7414V49.7414C28.9187 49.7414 30.1036 50.1152 31.0531 50.7799L33.3469 47.5029ZM27.4 45.7414C24.7447 45.7414 22.1453 46.4868 19.6244 47.8955L21.5756 51.3873C23.5881 50.2627 25.5219 49.7414 27.4 49.7414V45.7414ZM19.6244 47.8955C17.1972 49.2519 14.4837 51.2447 11.4928 53.8278L14.1072 56.855C16.983 54.3714 19.4695 52.5643 21.5756 51.3873L19.6244 47.8955ZM14.3202 54.0418L3.72024 41.6418L0.679758 44.241L11.2798 56.641L14.3202 54.0418ZM3.54304 44.4234C5.62012 42.541 7.82918 40.7541 10.171 39.0628L7.82902 35.82C5.37082 37.5954 3.04655 39.4751 0.85696 41.4594L3.54304 44.4234ZM10.1499 39.0778C12.4334 37.4731 15.1168 36.1562 18.2208 35.1426L16.9792 31.3402C13.5499 32.46 10.4999 33.943 7.85011 35.805L10.1499 39.0778ZM18.2555 35.1309C21.2496 34.0922 25.0133 33.5414 29.6 33.5414V29.5414C24.72 29.5414 20.4838 30.124 16.9445 31.3519L18.2555 35.1309ZM29.6 33.5414C34.232 33.5414 38.1171 34.3662 41.3192 35.937L43.0809 32.3458C39.2162 30.45 34.7013 29.5414 29.6 29.5414V33.5414ZM41.3468 35.9503C44.5863 37.4784 47.0209 39.5488 48.7301 42.142L52.0699 39.9408C49.9124 36.6674 46.8804 34.1378 43.0532 32.3325L41.3468 35.9503ZM48.7475 42.1681C50.5091 44.7517 51.4 47.6881 51.4 51.0414H55.4C55.4 46.928 54.2909 43.1978 52.0525 39.9147L48.7475 42.1681ZM51.4 51.0414C51.4 54.9237 50.6811 58.327 49.2895 61.2916L52.9105 62.9912C54.5856 59.4225 55.4 55.4258 55.4 51.0414H51.4ZM49.2819 61.3081C47.9262 64.266 45.7988 67.3228 42.8419 70.4725L45.7581 73.2103C48.9345 69.8267 51.3405 66.4168 52.9181 62.9747L49.2819 61.3081ZM42.8409 70.4735C39.8876 73.6238 36.1611 77.2527 31.6525 81.3635L34.3475 84.3193C38.9055 80.1635 42.7124 76.459 45.7591 73.2093L42.8409 70.4735ZM31.6589 81.3577L26.4589 86.0577L29.1411 89.0252L34.3411 84.3251L31.6589 81.3577ZM25.8 87.5414V88.0414H29.8V87.5414H25.8ZM27.8 90.0414H54.8V86.0414H27.8V90.0414ZM52.8 88.0414V103.941H56.8V88.0414H52.8Z" fill="#0461FD"/>
</svg>
