<svg width="76" height="46" viewBox="0 0 76 46" fill="none" xmlns="http://www.w3.org/2000/svg">
<path d="M2.76221 43.1709V37.4469H6.86019V43.1709H6.17974V38.0802H3.4503V43.1709H2.76221Z" fill="#DADBDC"/>
<path d="M10.2123 38.7937C10.7169 38.7937 11.1221 38.9781 11.4279 39.3469C11.7389 39.7156 11.8943 40.2715 11.8943 41.0144C11.8943 41.7466 11.7389 42.3024 11.4279 42.6818C11.1221 43.0613 10.7144 43.251 10.2047 43.251C9.88866 43.251 9.62616 43.1896 9.41719 43.0667C9.21331 42.9384 9.05275 42.7914 8.93552 42.6257H8.88965C8.89984 42.7166 8.91004 42.8315 8.92023 42.9705C8.93042 43.1094 8.93552 43.2297 8.93552 43.3312V45.0949H8.26272V38.8739H8.81319L8.90494 39.4591H8.93552C9.05785 39.272 9.2184 39.1144 9.41719 38.9861C9.61597 38.8578 9.88101 38.7937 10.2123 38.7937ZM10.09 39.387C9.67204 39.387 9.37641 39.5099 9.20311 39.7557C9.03491 40.0016 8.94571 40.3757 8.93552 40.8781V41.0144C8.93552 41.5435 9.01707 41.9523 9.18018 42.2409C9.34838 42.5242 9.65674 42.6658 10.1053 42.6658C10.355 42.6658 10.5589 42.5937 10.7169 42.4494C10.88 42.3051 10.9998 42.11 11.0763 41.8641C11.1578 41.6129 11.1986 41.327 11.1986 41.0063C11.1986 40.5146 11.1068 40.1218 10.9233 39.8279C10.745 39.5339 10.4672 39.387 10.09 39.387Z" fill="#DADBDC"/>
<path d="M16.5293 41.0144C16.5293 41.7252 16.356 42.2757 16.0094 42.6658C15.6679 43.056 15.2041 43.251 14.6179 43.251C14.256 43.251 13.9324 43.1655 13.6469 42.9945C13.3666 42.8181 13.1449 42.5643 12.9818 42.2329C12.8187 41.8962 12.7371 41.49 12.7371 41.0144C12.7371 40.3035 12.9079 39.7557 13.2494 39.3709C13.5909 38.9861 14.0547 38.7937 14.6408 38.7937C15.0129 38.7937 15.3391 38.8819 15.6195 39.0583C15.9049 39.2293 16.1266 39.4805 16.2846 39.8118C16.4477 40.1379 16.5293 40.5387 16.5293 41.0144ZM13.4329 41.0144C13.4329 41.5221 13.5272 41.9256 13.7157 42.2249C13.9094 42.5188 14.2152 42.6658 14.6332 42.6658C15.0461 42.6658 15.3493 42.5188 15.543 42.2249C15.7367 41.9256 15.8335 41.5221 15.8335 41.0144C15.8335 40.5066 15.7367 40.1085 15.543 39.8199C15.3493 39.5313 15.0435 39.387 14.6256 39.387C14.2076 39.387 13.9043 39.5313 13.7157 39.8199C13.5272 40.1085 13.4329 40.5066 13.4329 41.0144Z" fill="#DADBDC"/>
<path d="M20.0421 37.0781V38.8097C20.4499 38.8472 20.8041 38.9594 21.1049 39.1465C21.4107 39.3335 21.6477 39.5847 21.8159 39.9C21.9841 40.2154 22.0682 40.5895 22.0682 41.0224C22.0682 41.6691 21.8873 42.1848 21.5254 42.5696C21.1686 42.9544 20.6742 43.1762 20.0421 43.235V45.0949H19.3846V43.235C18.982 43.1976 18.6277 43.088 18.3219 42.9063C18.0161 42.7193 17.7791 42.4681 17.6109 42.1527C17.4427 41.8321 17.3586 41.4553 17.3586 41.0224C17.3586 40.3703 17.537 39.8519 17.8938 39.4671C18.2556 39.0823 18.7603 38.8632 19.4076 38.8097V37.0781H20.0421ZM19.4076 39.395C18.9386 39.4431 18.5971 39.6061 18.3831 39.884C18.169 40.1566 18.062 40.536 18.062 41.0224C18.062 41.5087 18.169 41.8909 18.3831 42.1688C18.6022 42.4467 18.9437 42.6097 19.4076 42.6578V39.395ZM20.0421 39.403V42.6578C20.5009 42.6044 20.8373 42.4387 21.0513 42.1608C21.2654 41.8828 21.3725 41.5034 21.3725 41.0224C21.3725 40.5414 21.2629 40.1646 21.0437 39.892C20.8296 39.6194 20.4958 39.4564 20.0421 39.403Z" fill="#DADBDC"/>
<path d="M27.2565 37.4469L25.5133 41.5435C25.3502 41.9229 25.1846 42.2409 25.0164 42.4975C24.8533 42.7487 24.6596 42.9384 24.4353 43.0667C24.211 43.1896 23.9256 43.251 23.579 43.251C23.4363 43.251 23.3012 43.2404 23.1738 43.219C23.0515 43.1976 22.9393 43.1682 22.8374 43.1308V42.4173C22.9393 42.4654 23.0489 42.5055 23.1662 42.5375C23.2834 42.5643 23.4057 42.5776 23.5331 42.5776C23.8186 42.5776 24.0428 42.5135 24.2059 42.3852C24.3741 42.257 24.5296 42.0298 24.6723 41.7038L22.5698 37.4469H23.3267L24.8482 40.5975C24.8737 40.6509 24.9042 40.7204 24.9399 40.8059C24.9756 40.8861 25.0062 40.9636 25.0317 41.0384H25.0622C25.0826 40.9796 25.1081 40.9101 25.1387 40.83C25.1693 40.7445 25.1948 40.675 25.2152 40.6215L26.5302 37.4469H27.2565Z" fill="#DADBDC"/>
<path d="M28.3459 38.8739V40.4372C28.3459 40.9288 28.6084 41.1747 29.1334 41.1747C29.3883 41.1747 29.6202 41.1346 29.8291 41.0544C30.0381 40.9689 30.2522 40.8567 30.4714 40.7177V38.8739H31.1442V43.1709H30.4714V41.2549C30.242 41.4099 30.0152 41.5328 29.7909 41.6236C29.5717 41.7091 29.3067 41.7519 28.9958 41.7519C28.5778 41.7519 28.2516 41.637 28.0172 41.4072C27.7878 41.1774 27.6731 40.8701 27.6731 40.4853V38.8739H28.3459Z" fill="#DADBDC"/>
<path d="M34.0287 38.7937C34.3804 38.7937 34.6811 38.8739 34.9308 39.0342C35.1857 39.1946 35.3794 39.4217 35.5119 39.7156C35.6495 40.0042 35.7183 40.3436 35.7183 40.7338V41.1587H32.9124C32.9226 41.645 33.0398 42.0165 33.2641 42.273C33.4935 42.5242 33.812 42.6498 34.2198 42.6498C34.4797 42.6498 34.7091 42.6257 34.9079 42.5776C35.1118 42.5242 35.3208 42.4494 35.5348 42.3532V42.9705C35.3259 43.0667 35.1194 43.1361 34.9155 43.1789C34.7117 43.227 34.4696 43.251 34.1892 43.251C33.8018 43.251 33.4578 43.1682 33.1571 43.0025C32.8615 42.8368 32.6295 42.591 32.4613 42.265C32.2982 41.9336 32.2167 41.5301 32.2167 41.0544C32.2167 40.5841 32.2906 40.1806 32.4384 39.8439C32.5913 39.5072 32.8028 39.248 33.073 39.0663C33.3482 38.8846 33.6668 38.7937 34.0287 38.7937ZM34.021 39.3709C33.6999 39.3709 33.4451 39.4805 33.2565 39.6996C33.073 39.9134 32.9634 40.2127 32.9277 40.5975H35.0149C35.0098 40.2341 34.9283 39.9401 34.7703 39.7156C34.6123 39.4858 34.3625 39.3709 34.021 39.3709Z" fill="#DADBDC"/>
<path d="M39.5904 39.4671H38.2524V43.1709H37.5873V39.4671H36.2646V38.8739H39.5904V39.4671Z" fill="#DADBDC"/>
<path d="M71.2208 27.3373C73.5824 27.3379 75.4978 25.235 75.4978 22.6413C75.4978 20.0476 73.5835 17.9453 71.2208 17.9453C68.8587 17.9453 66.9438 20.0483 66.9438 22.6413C66.9444 25.235 68.8593 27.3373 71.2208 27.3373Z" fill="#DADBDC"/>
<path d="M70.8552 16.647C72.7301 15.4588 73.3727 12.8266 72.2901 10.7677C71.2075 8.70941 68.8105 8.00394 66.935 9.19277C65.0595 10.3816 64.4175 13.0138 65.5001 15.0721C66.5827 17.1304 68.9803 17.8352 70.8552 16.647Z" fill="#DADBDC"/>
<path d="M65.5395 7.73401C66.5244 5.86356 65.9391 3.46998 64.2356 2.38945C62.5316 1.31014 60.352 1.95075 59.3682 3.8218C58.3833 5.69347 58.9676 8.08582 60.6716 9.16636C62.3762 10.2469 64.5552 9.60567 65.5395 7.73401Z" fill="#DADBDC"/>
<path d="M56.4734 3.13025C56.474 1.40176 55.1972 0 53.623 0C52.0478 0 50.771 1.40115 50.771 3.13025C50.771 4.85936 52.0478 6.26112 53.623 6.26112C55.1972 6.26112 56.4734 4.85874 56.4734 3.13025Z" fill="#DADBDC"/>
<path d="M46.6194 4.5098C46.0301 3.38704 44.7217 3.00279 43.6991 3.65075C42.6765 4.29932 42.3258 5.73473 42.9167 6.85749C43.5077 7.98024 44.8144 8.3651 45.837 7.71714C46.8597 7.06858 47.2098 5.63255 46.6194 4.5098Z" fill="#DADBDC"/>
<path d="M38.977 11.4012C38.2956 10.9692 37.4239 11.2256 37.0299 11.9745C36.636 12.7234 36.8701 13.6804 37.5521 14.1117C38.2329 14.5437 39.1052 14.2879 39.4986 13.539C39.892 12.7907 39.6584 11.8344 38.977 11.4012Z" fill="#DADBDC"/>
<path d="M37.4656 30.8193C36.7837 31.2519 36.549 32.2088 36.9435 32.9571C37.3375 33.7061 38.2092 33.9618 38.8906 33.5298C39.5719 33.0979 39.8055 32.1403 39.4132 31.3926C39.0187 30.6431 38.1476 30.3873 37.4656 30.8193Z" fill="#DADBDC"/>
<path d="M42.768 38.1412C42.177 39.264 42.5271 40.6994 43.5498 41.348C44.5735 41.9965 45.8808 41.6117 46.4717 40.4889C47.0616 39.3656 46.7109 37.9302 45.6888 37.2816C44.6656 36.6336 43.3583 37.0179 42.768 38.1412Z" fill="#DADBDC"/>
<path d="M50.5994 41.9642C50.5994 43.6927 51.8756 45.0951 53.4509 45.0951C55.0251 45.0951 56.3018 43.694 56.3018 41.9642C56.3018 40.2351 55.0251 38.834 53.4509 38.834C51.8761 38.834 50.5994 40.2351 50.5994 41.9642Z" fill="#DADBDC"/>
<path d="M59.219 41.366C60.2022 43.2377 62.3823 43.8783 64.0869 42.7977C65.792 41.7172 66.3746 39.3242 65.3908 37.4538C64.4065 35.5821 62.2281 34.9403 60.523 36.0208C58.8184 37.102 58.2347 39.4949 59.219 41.366Z" fill="#DADBDC"/>
<path d="M66.8495 36.0637C68.7239 37.2519 71.1215 36.5464 72.2029 34.4875C73.2872 32.4292 72.6446 29.7976 70.7692 28.6088C68.8942 27.42 66.4972 28.1254 65.4146 30.1837C64.3315 32.242 64.9741 34.8742 66.8495 36.0637Z" fill="#DADBDC"/>
<path d="M21.9519 28.8671L20.4588 34.2044H1.49261L0 28.8671H2.50914C2.44644 28.5178 2.39262 28.0001 2.35045 27.3124C2.30772 26.6253 2.28663 26.0477 2.28663 25.5821C2.28663 21.3187 3.28152 17.9168 5.27297 15.377C7.60177 12.3948 11.0858 10.9043 15.7246 10.9043H25.416L26.9086 16.3107H14.0738C12.6123 16.3107 11.2773 17.01 10.071 18.4087C8.67268 20.0179 7.97409 22.07 7.97409 24.5652C7.97409 26.3842 8.04789 27.8184 8.1966 28.8671H14.0738V17.322H19.7602V28.8671H21.9519Z" fill="#DADBDC"/>
<path d="M60.8364 24.8344C60.2005 23.7863 59.2683 22.6911 58.0404 21.5487C57.2147 20.7809 55.9857 19.8129 54.356 18.6473L50.0668 22.1471C51.358 22.8245 52.5765 23.7569 53.7196 24.947C54.8632 26.1364 55.4358 27.116 55.4358 27.8863C55.4358 28.2596 55.2549 28.5569 54.8953 28.7784C54.5352 28.9999 54.0059 29.1107 53.3073 29.1107H49.8438V16.3107H60.4557L59.2161 10.9043H45.1684H44.3478H37.0356V16.3107H44.3478V34.2038H54.9902C56.7053 34.2038 58.1669 33.8654 59.3737 33.1893C61.0683 32.2342 61.9156 30.7082 61.9156 28.6096C61.9156 27.3057 61.5555 26.0471 60.8364 24.8344Z" fill="#DADBDC"/>
<path d="M42.2203 34.2038H35.326L29.7667 21.4723V34.2038H24.0798V10.9043H29.7667V21.2287L34.6907 10.9043H41.2349L35.8981 20.9999L42.2203 34.2038Z" fill="#DADBDC"/>
</svg>
