<svg viewBox="0 0 82 45" fill="none" xmlns="http://www.w3.org/2000/svg">
<path d="M77.3548 27.2799C79.9197 27.2805 82.0001 25.182 82.0001 22.5938C82.0001 20.0055 79.9209 17.9076 77.3548 17.9076C74.7893 17.9076 72.7095 20.0061 72.7095 22.5938C72.7101 25.182 74.7899 27.2799 77.3548 27.2799Z" fill="#B1DBFC"/>
<path d="M76.9576 16.6125C78.994 15.4268 79.6919 12.8001 78.5161 10.7455C77.3403 8.69151 74.7368 7.98752 72.6998 9.17386C70.6628 10.3602 69.9655 12.9869 71.1413 15.0409C72.3171 17.0949 74.9212 17.7982 76.9576 16.6125Z" fill="#B1DBFC"/>
<path d="M71.184 7.71831C72.2538 5.85178 71.618 3.46321 69.7678 2.38493C67.917 1.30788 65.5497 1.94715 64.4812 3.81429C63.4115 5.68204 64.0461 8.06939 65.8969 9.14766C67.7482 10.2259 70.1149 9.58606 71.184 7.71831Z" fill="#B1DBFC"/>
<path d="M61.3371 3.1237C61.3377 1.39883 59.951 0 58.2412 0C56.5303 0 55.1436 1.39822 55.1436 3.1237C55.1436 4.84919 56.5303 6.24802 58.2412 6.24802C59.951 6.24802 61.3371 4.84858 61.3371 3.1237Z" fill="#B1DBFC"/>
<path d="M50.6344 4.50111C49.9944 3.38071 48.5733 2.99727 47.4626 3.64386C46.3519 4.29108 45.971 5.72349 46.6128 6.84389C47.2547 7.9643 48.674 8.34835 49.7847 7.70175C50.8954 7.05454 51.2757 5.62152 50.6344 4.50111Z" fill="#B1DBFC"/>
<path d="M42.3335 11.3775C41.5934 10.9464 40.6467 11.2022 40.2188 11.9496C39.7909 12.6969 40.0452 13.6519 40.7859 14.0823C41.5253 14.5134 42.4727 14.2582 42.9 13.5108C43.3273 12.7641 43.0736 11.8097 42.3335 11.3775Z" fill="#B1DBFC"/>
<path d="M40.6924 30.7541C39.9517 31.1857 39.6968 32.1407 40.1253 32.8874C40.5532 33.6348 41.5 33.89 42.24 33.4589C42.9801 33.0278 43.2338 32.0723 42.8077 31.3262C42.3792 30.5782 41.4331 30.323 40.6924 30.7541Z" fill="#B1DBFC"/>
<path d="M46.4514 38.062C45.8095 39.1824 46.1898 40.6148 47.3005 41.262C48.4125 41.9092 49.8323 41.5252 50.4742 40.4048C51.1148 39.2838 50.7339 37.8514 49.6238 37.2041C48.5125 36.5575 47.0926 36.941 46.4514 38.062Z" fill="#B1DBFC"/>
<path d="M54.9573 41.8757C54.9573 43.6005 56.3434 45 58.0544 45C59.7641 45 61.1509 43.6018 61.1509 41.8757C61.1509 40.1502 59.7641 38.752 58.0544 38.752C56.344 38.752 54.9573 40.1502 54.9573 41.8757Z" fill="#B1DBFC"/>
<path d="M64.3193 41.2791C65.3872 43.1469 67.755 43.7862 69.6064 42.7079C71.4584 41.6296 72.0912 39.2416 71.0226 37.3751C69.9535 35.5074 67.5875 34.8669 65.7355 35.9451C63.8842 37.024 63.2502 39.412 64.3193 41.2791Z" fill="#B1DBFC"/>
<path d="M72.6071 35.9891C74.6429 37.1748 77.2469 36.4708 78.4215 34.4163C79.5991 32.3623 78.9013 29.7362 76.8643 28.5498C74.8279 27.3635 72.2244 28.0675 71.0486 30.1215C69.8722 32.1754 70.5701 34.8021 72.6071 35.9891Z" fill="#B1DBFC"/>
<path d="M23.8425 28.8076L22.2207 34.1336H1.62116L0 28.8076H2.72524C2.65714 28.4589 2.59868 27.9424 2.55288 27.2561C2.50647 26.5704 2.48357 25.9941 2.48357 25.5294C2.48357 21.2749 3.56414 17.8801 5.7271 15.3456C8.25647 12.3697 12.0406 10.8823 17.0788 10.8823H27.6049L29.2261 16.2774H15.2859C13.6985 16.2774 12.2485 16.9753 10.9383 18.371C9.41961 19.9768 8.66086 22.0247 8.66086 24.5146C8.66086 26.3299 8.74101 27.7611 8.90252 28.8076H15.2859V17.2866H21.462V28.8076H23.8425Z" fill="#262262"/>
<path d="M66.0759 24.7833C65.3852 23.7374 64.3728 22.6444 63.0391 21.5045C62.1423 20.7382 60.8074 19.7723 59.0374 18.6092L54.3788 22.1016C55.7812 22.7775 57.1047 23.7081 58.3462 24.8956C59.5882 26.0826 60.2102 27.0601 60.2102 27.8288C60.2102 28.2013 60.0137 28.498 59.6232 28.7191C59.2321 28.9401 58.6571 29.0506 57.8984 29.0506H54.1366V16.2774H65.6625L64.3161 10.8823H49.0585H48.1672H40.2253V16.2774H48.1672V34.133H59.7263C61.5891 34.133 63.1765 33.7954 64.4873 33.1207C66.3278 32.1676 67.2481 30.6448 67.2481 28.5505C67.2481 27.2494 66.8569 25.9934 66.0759 24.7833Z" fill="#B1DBFC"/>
<path d="M45.8567 34.1336H38.3686L32.3305 21.4288V34.1336H26.1538V10.8829H32.3305V21.1858L37.6785 10.8829H44.7863L38.9899 20.9574L45.8567 34.1336Z" fill="#0461FD"/>
</svg>
