<svg width="83" height="100" viewBox="0 0 83 100" fill="none" xmlns="http://www.w3.org/2000/svg">
<path d="M2 1.94141C2 1.38912 1.55228 0.941406 1 0.941406C0.447715 0.941406 0 1.38912 0 1.94141H2ZM0 1.94141C0 2.28139 0.00147384 2.62035 0.00441021 2.95829L2.00433 2.94091C2.00145 2.60877 2 2.27561 2 1.94141H0ZM0.10913 6.96485C0.13855 7.63604 0.17384 8.30306 0.214905 8.96591L2.21108 8.84224C2.17076 8.19146 2.13611 7.53647 2.10721 6.87727L0.10913 6.96485ZM0.536536 12.9608C0.603116 13.6309 0.675704 14.2967 0.754193 14.958L2.74025 14.7222C2.66327 14.0736 2.59206 13.4206 2.52674 12.763L0.536536 12.9608ZM1.30311 18.9235C1.40892 19.5911 1.52085 20.2541 1.63878 20.9123L3.60744 20.5596C3.49187 19.9146 3.38218 19.2649 3.27846 18.6104L1.30311 18.9235ZM2.42365 24.8336C2.57025 25.4954 2.72303 26.1522 2.88184 26.8041L4.825 26.3306C4.6695 25.6924 4.5199 25.0492 4.37632 24.401L2.42365 24.8336ZM3.91204 30.6761C4.09938 31.3246 4.2928 31.9679 4.49215 32.606L6.40116 32.0097C6.2061 31.3853 6.01682 30.7557 5.83347 30.121L3.91204 30.6761ZM5.77156 36.4099C5.99962 37.0421 6.23358 37.6689 6.4733 38.2903L8.33929 37.5705C8.10482 36.9627 7.87597 36.3496 7.65288 35.7312L5.77156 36.4099ZM8.00196 42.0068C8.27011 42.6198 8.54394 43.2273 8.82328 43.8293L10.6375 42.9875C10.3643 42.3988 10.0966 41.8047 9.83432 41.2053L8.00196 42.0068ZM10.5972 47.4396C10.9067 48.0355 11.2216 48.6257 11.5417 49.2102L13.2958 48.2493C12.9827 47.6777 12.6748 47.1006 12.3722 46.5179L10.5972 47.4396ZM13.5467 52.6852C13.8967 53.262 14.2519 53.8329 14.6121 54.3979L16.2985 53.3228C15.9462 52.7701 15.5988 52.2118 15.2565 51.6476L13.5467 52.6852ZM16.8438 57.7351C17.2291 58.2849 17.6191 58.8286 18.0135 59.3664L19.6262 58.1834C19.2402 57.6572 18.8586 57.1252 18.4817 56.5874L16.8438 57.7351ZM20.4584 62.5534C20.8771 63.0757 21.3001 63.592 21.727 64.1022L23.2608 62.8186C22.8428 62.3191 22.4288 61.8137 22.0189 61.3024L20.4584 62.5534ZM24.3667 67.1258C24.8199 67.6236 25.2767 68.1151 25.7371 68.6005L27.1881 67.224C26.7371 66.7486 26.2896 66.2671 25.8457 65.7795L24.3667 67.1258ZM28.5569 71.455C29.0375 71.9224 29.5213 72.3835 30.008 72.8384L31.3737 71.3773C30.8966 70.9313 30.4223 70.4793 29.9512 70.0212L28.5569 71.455ZM32.9927 75.5208C33.4999 75.959 34.0096 76.391 34.5215 76.8165L35.8001 75.2786C35.2979 74.8611 34.7979 74.4374 34.3005 74.0075L32.9927 75.5208ZM37.6523 79.3212C38.1851 79.7313 38.7196 80.1348 39.2558 80.5319L40.4462 78.9248C39.9199 78.5349 39.3951 78.1388 38.8722 77.7363L37.6523 79.3212ZM42.521 82.8595C43.0726 83.2378 43.6253 83.6096 44.1787 83.9748L45.2803 82.3055C44.7367 81.9468 44.1939 81.5817 43.6522 81.2101L42.521 82.8595ZM47.5625 86.1229C48.1379 86.4741 48.7134 86.8185 49.2888 87.156L50.3007 85.4308C49.7353 85.0992 49.1698 84.7609 48.6045 84.4158L47.5625 86.1229ZM52.7806 89.1236C53.37 89.4425 53.9585 89.7543 54.5459 90.0591L55.4671 88.2839C54.8899 87.9843 54.3114 87.6779 53.7322 87.3645L52.7806 89.1236ZM58.1365 91.8447C58.745 92.1343 59.3515 92.4165 59.9554 92.6912L60.7836 90.8708C60.1901 90.6008 59.5941 90.3235 58.996 90.0388L58.1365 91.8447ZM63.6288 94.2859C64.2547 94.5447 64.8768 94.7954 65.4948 95.0381L66.2259 93.1765C65.619 92.9382 65.0079 92.6919 64.393 92.4377L63.6288 94.2859ZM69.2533 96.436C69.8911 96.66 70.523 96.8751 71.1486 97.0814L71.7752 95.1821C71.1617 94.9797 70.5417 94.7687 69.9158 94.549L69.2533 96.436ZM74.99 98.2647C75.6427 98.4513 76.2864 98.6276 76.9202 98.794L77.428 96.8596C76.8083 96.6969 76.1786 96.5243 75.5396 96.3417L74.99 98.2647ZM80.8401 99.7249C81.1657 99.7937 81.4877 99.8595 81.8062 99.9224L82.1938 97.9604C81.8841 97.8992 81.5707 97.8351 81.2537 97.7681L80.8401 99.7249Z" fill="#0461FD"/>
</svg>
