<svg width="97" height="120" viewBox="0 0 97 120" fill="none" xmlns="http://www.w3.org/2000/svg">
<path d="M95 118.941C95 119.494 95.4477 119.941 96 119.941C96.5523 119.941 97 119.494 97 118.941H95ZM97 118.941C97 118.615 96.9985 118.288 96.9955 117.96L94.9956 117.978C94.9985 118.3 95 118.621 95 118.941H97ZM96.8873 113.99C96.8579 113.336 96.8227 112.678 96.7817 112.016L94.7855 112.14C94.8258 112.79 94.8604 113.437 94.8893 114.08L96.8873 113.99ZM96.4711 108.063C96.4087 107.406 96.3407 106.746 96.2672 106.083L94.2794 106.304C94.3518 106.956 94.4187 107.606 94.4801 108.252L96.4711 108.063ZM95.7697 102.156C95.6771 101.505 95.5791 100.851 95.4759 100.196L93.5002 100.507C93.6019 101.152 93.6984 101.796 93.7897 102.438L95.7697 102.156ZM94.8007 96.2868C94.6798 95.6429 94.5537 94.9977 94.4227 94.3512L92.4626 94.7487C92.5917 95.3858 92.7159 96.0216 92.8351 96.656L94.8007 96.2868ZM93.5796 90.4788C93.4305 89.8381 93.2764 89.1965 93.1174 88.5542L91.176 89.0349C91.3328 89.668 91.4846 90.3005 91.6316 90.9321L93.5796 90.4788ZM92.1117 84.7242C91.9352 84.0884 91.7539 83.4522 91.5676 82.8159L89.6481 83.3778C89.8318 84.0052 90.0106 84.6323 90.1846 85.2591L92.1117 84.7242ZM90.4029 79.034C90.1998 78.4059 89.9919 77.778 89.7793 77.1503L87.8851 77.7922C88.0947 78.4109 88.2997 79.03 88.4999 79.6493L90.4029 79.034ZM88.4564 73.4193C88.2275 72.8016 87.994 72.1845 87.7557 71.5681L85.8903 72.2893C86.1251 72.8969 86.3554 73.5052 86.5809 74.114L88.4564 73.4193ZM86.2741 67.8919C86.0194 67.2851 85.76 66.6793 85.496 66.0747L83.6631 66.8751C83.9233 67.4709 84.1789 68.0679 84.4299 68.6659L86.2741 67.8919ZM83.8575 62.4664C83.5763 61.8703 83.2903 61.2756 82.9997 60.6824L81.2037 61.5624C81.49 62.1467 81.7716 62.7325 82.0487 63.3198L83.8575 62.4664ZM81.2035 57.1503C80.8956 56.5667 80.583 55.9848 80.2657 55.4049L78.5112 56.3649C78.8236 56.9358 79.1314 57.5088 79.4346 58.0836L81.2035 57.1503ZM78.3105 51.9581C77.9757 51.3887 77.6363 50.8216 77.2921 50.2567L75.5842 51.2973C75.9228 51.8532 76.2569 52.4114 76.5864 52.9718L78.3105 51.9581ZM75.1764 46.9055C74.8146 46.3524 74.4481 45.8018 74.0768 45.254L72.4212 46.3759C72.7862 46.9146 73.1467 47.4561 73.5026 48.0003L75.1764 46.9055ZM71.7992 42.0097C71.4105 41.4753 71.0171 40.9438 70.619 40.4156L69.0217 41.6192C69.413 42.1384 69.7996 42.6607 70.1817 43.1861L71.7992 42.0097ZM68.1774 37.2893C67.7618 36.7757 67.3414 36.2656 66.9163 35.7589L65.3842 37.0445C65.8017 37.542 66.2145 38.0431 66.6228 38.5475L68.1774 37.2893ZM64.3108 32.7647C63.8683 32.2743 63.421 31.7877 62.969 31.305L61.5091 32.672C61.9527 33.1457 62.3917 33.6233 62.8261 34.1046L64.3108 32.7647ZM60.2016 28.4583C59.7321 27.9932 59.2578 27.5322 58.7788 27.0756L57.3987 28.5231C57.8684 28.9709 58.3335 29.423 58.7941 29.8792L60.2016 28.4583ZM55.8522 24.3917C55.3563 23.9544 54.8556 23.5216 54.3501 23.0934L53.0574 24.6194C53.5527 25.039 54.0434 25.4632 54.5295 25.8918L55.8522 24.3917ZM51.269 20.5877C50.7473 20.1807 50.2209 19.7785 49.6898 19.3813L48.4919 20.9829C49.0121 21.3719 49.5277 21.7659 50.0387 22.1646L51.269 20.5877ZM46.4612 17.0689C45.9149 16.6945 45.3639 16.3253 44.8081 15.9613L43.7124 17.6345C44.2564 17.9907 44.7958 18.3522 45.3306 18.7187L46.4612 17.0689ZM41.4416 13.8565C40.872 13.517 40.2978 13.1829 39.719 12.8543L38.7317 14.5937C39.2982 14.9152 39.8601 15.2421 40.4174 15.5744L41.4416 13.8565ZM36.2265 10.9695C35.6367 10.6673 35.0423 10.3707 34.4433 10.08L33.5699 11.8792C34.1559 12.1637 34.7374 12.4538 35.3145 12.7494L36.2265 10.9695ZM30.8356 8.42345C30.2286 8.16042 29.6173 7.9032 29.0015 7.65192L28.2458 9.50368C28.8484 9.74953 29.4465 10.0012 30.0403 10.2585L30.8356 8.42345ZM25.2916 6.23008C24.6703 6.0071 24.0447 5.79003 23.4149 5.57899L22.7795 7.47538C23.3959 7.6819 24.008 7.89431 24.616 8.1125L25.2916 6.23008ZM19.6193 4.3961C18.9864 4.21342 18.3494 4.03671 17.7083 3.86606L17.1938 5.79877C17.8215 5.96584 18.4451 6.13883 19.0647 6.31766L19.6193 4.3961ZM13.8447 2.9231C13.2026 2.78036 12.5566 2.64359 11.9067 2.51289L11.5123 4.47363C12.149 4.60167 12.7818 4.73564 13.4106 4.87543L13.8447 2.9231ZM7.99348 1.80755C7.34427 1.70387 6.69128 1.60612 6.03451 1.5144L5.75789 3.49519C6.40173 3.5851 7.04179 3.68091 7.67808 3.78252L7.99348 1.80755ZM2.09043 1.04123C1.75806 1.0078 1.42476 0.975899 1.09054 0.945511L0.909462 2.9373C1.23735 2.96711 1.56429 2.99841 1.89031 3.0312L2.09043 1.04123Z" fill="#0461FD"/>
</svg>
