<svg width="74" height="81" viewBox="0 0 74 81" fill="none" xmlns="http://www.w3.org/2000/svg">
<path d="M72.0088 1.80924C72.0818 1.2618 72.5847 0.877186 73.1322 0.950178C73.6796 1.02317 74.0642 1.52613 73.9912 2.07357L72.0088 1.80924ZM73.9912 2.07357C73.9454 2.41702 73.8987 2.75894 73.851 3.09935L71.8704 2.82193C71.9174 2.4859 71.9636 2.14834 72.0088 1.80924L73.9912 2.07357ZM73.2342 7.11199C73.1203 7.79102 73.0025 8.4637 72.8809 9.13009L70.9134 8.77097C71.0333 8.11408 71.1494 7.45082 71.2618 6.78114L73.2342 7.11199ZM72.0945 13.1054C71.9499 13.7821 71.8013 14.4519 71.6486 15.115L69.6996 14.6661C69.8499 14.0135 69.9963 13.3541 70.1386 12.6877L72.0945 13.1054ZM70.6709 19.0624C70.4947 19.7258 70.3143 20.3819 70.1297 21.0309L68.206 20.4837C68.3874 19.846 68.5647 19.2012 68.7379 18.549L70.6709 19.0624ZM68.9422 24.9334C68.7323 25.5796 68.5181 26.2182 68.2996 26.8494L66.4097 26.1951C66.6239 25.5762 66.8341 24.9497 67.04 24.3156L68.9422 24.9334ZM66.8844 30.6854C66.6328 31.3264 66.3765 31.959 66.1158 32.5836L64.2702 31.813C64.5254 31.2017 64.7763 30.5823 65.0227 29.9546L66.8844 30.6854ZM64.4596 36.3151C64.1666 36.937 63.8689 37.55 63.5666 38.1545L61.7778 37.2598C62.0731 36.6694 62.364 36.0704 62.6504 35.4627L64.4596 36.3151ZM61.6495 41.7661C61.3126 42.3647 60.9709 42.954 60.6247 43.5343L58.9072 42.5094C59.2448 41.9437 59.578 41.369 59.9066 40.7851L61.6495 41.7661ZM58.4358 46.9937C58.0532 47.5643 57.6659 48.1252 57.2742 48.6766L55.6438 47.5182C56.0251 46.9815 56.4021 46.4355 56.7746 45.8799L58.4358 46.9937ZM54.8124 51.9457C54.3818 52.4854 53.9467 53.015 53.5072 53.5347L51.98 52.2432C52.4072 51.738 52.8303 51.2232 53.249 50.6984L54.8124 51.9457ZM50.7727 56.5855C50.3 57.0832 49.8231 57.5707 49.3422 58.0482L47.9328 56.6292C48.4 56.1652 48.8633 55.6916 49.3227 55.208L50.7727 56.5855ZM46.349 60.852C45.8358 61.3053 45.3189 61.7485 44.7986 62.1818L43.5187 60.645C44.0242 60.224 44.5264 59.7934 45.025 59.353L46.349 60.852ZM41.5717 64.715C41.02 65.123 40.4654 65.5209 39.908 65.9093L38.7648 64.2682C39.3069 63.8906 39.8462 63.5036 40.3825 63.107L41.5717 64.715ZM36.4843 68.1556C35.9004 68.5161 35.3142 68.8671 34.7262 69.2087L33.7215 67.4794C34.2943 67.1466 34.8651 66.8049 35.4335 66.4538L36.4843 68.1556ZM31.1379 71.1702C30.5279 71.4836 29.9165 71.788 29.3042 72.0836L28.4346 70.2825C29.0323 69.994 29.6288 69.697 30.2238 69.3913L31.1379 71.1702ZM25.5845 73.7714C24.9542 74.0399 24.3236 74.3 23.6931 74.552L22.9507 72.6949C23.5677 72.4482 24.1845 72.1939 24.8008 71.9314L25.5845 73.7714ZM19.8729 75.9857C19.2275 76.2128 18.5829 76.4323 17.9397 76.6446L17.3129 74.7453C17.9441 74.537 18.5763 74.3217 19.209 74.0991L19.8729 75.9857ZM14.0453 77.8505C13.3895 78.0409 12.736 78.2245 12.0851 78.4018L11.5595 76.4721C12.2001 76.2976 12.843 76.117 13.4878 75.9298L14.0453 77.8505ZM8.13768 79.4121C7.47469 79.5715 6.81553 79.7251 6.16073 79.8733L5.71905 77.9227C6.36568 77.7763 7.01622 77.6247 7.67019 77.4675L8.13768 79.4121ZM2.18177 80.7248C1.85096 80.7919 1.52161 80.8577 1.19379 80.9224L0.806213 78.9604C1.13102 78.8962 1.45722 78.831 1.78474 78.7646L2.18177 80.7248Z" fill="#0461FD"/>
</svg>
