<svg width="131" height="127" viewBox="0 0 131 127" fill="none" xmlns="http://www.w3.org/2000/svg">
<path d="M2 125.941C2 126.494 1.55228 126.941 1 126.941C0.447715 126.941 0 126.494 0 125.941H2ZM0 125.941C0 125.603 0.00159276 125.265 0.00477165 124.927L2.00468 124.946C2.00156 125.278 2 125.609 2 125.941H0ZM0.11863 120.88C0.150213 120.206 0.188058 119.532 0.232113 118.859L2.22784 118.99C2.18459 119.65 2.14744 120.312 2.11644 120.974L0.11863 120.88ZM0.571355 114.825C0.640303 114.154 0.715393 113.484 0.79657 112.814L2.78202 113.055C2.70231 113.712 2.62858 114.371 2.56089 115.03L0.571355 114.825ZM1.35711 108.806C1.46267 108.139 1.57423 107.474 1.69173 106.81L3.66113 107.159C3.54571 107.811 3.43615 108.464 3.33248 109.119L1.35711 108.806ZM2.46837 102.838C2.60961 102.179 2.75669 101.52 2.90958 100.864L4.8575 101.317C4.70729 101.962 4.56278 102.609 4.42403 103.257L2.46837 102.838ZM3.89623 96.9394C4.07209 96.2885 4.25363 95.6391 4.44081 94.9912L6.36222 95.5463C6.17825 96.1831 5.99983 96.8213 5.82701 97.461L3.89623 96.9394ZM5.63075 91.1244C5.84008 90.4837 6.05492 89.8446 6.27523 89.2072L8.16549 89.8606C7.94889 90.4872 7.73767 91.1156 7.53189 91.7455L5.63075 91.1244ZM7.66131 85.4071C7.90289 84.7779 8.14982 84.1506 8.40203 83.5253L10.2569 84.2733C10.0088 84.8884 9.76597 85.5053 9.5284 86.124L7.66131 85.4071ZM9.97682 79.8001C10.2494 79.1839 10.5272 78.5697 10.8101 77.9577L12.6255 78.7967C12.3473 79.3989 12.074 80.0031 11.8058 80.6093L9.97682 79.8001ZM12.566 74.3152C12.8684 73.7131 13.1758 73.1133 13.488 72.5157L15.2606 73.4421C14.9533 74.0301 14.6508 74.6204 14.3533 75.2128L12.566 74.3152ZM15.4177 68.9629C15.7486 68.3762 16.0843 67.7918 16.4247 67.2099L18.151 68.2198C17.8159 68.7926 17.4854 69.3678 17.1597 69.9454L15.4177 68.9629ZM18.5206 63.7532C18.8788 63.1828 19.2417 62.6149 19.6091 62.0497L21.286 63.1396C20.9242 63.6961 20.567 64.2553 20.2143 64.8169L18.5206 63.7532ZM21.8639 58.6953C22.2483 58.1422 22.6371 57.5917 23.0302 57.0441L24.6549 58.2105C24.2677 58.7498 23.8848 59.2919 23.5063 59.8366L21.8639 58.6953ZM25.437 53.7977C25.8463 53.2628 26.2599 52.7307 26.6777 52.2016L28.2473 53.4411C27.8358 53.9622 27.4284 54.4863 27.0253 55.0131L25.437 53.7977ZM29.2294 49.0686C29.6626 48.5528 30.0999 48.04 30.5412 47.5303L32.0532 48.8395C31.6184 49.3416 31.1877 49.8467 30.7609 50.3548L29.2294 49.0686ZM33.2312 44.5158C33.6872 44.02 34.1471 43.5274 34.6108 43.0379L36.0626 44.4135C35.6057 44.8957 35.1526 45.3811 34.7034 45.8696L33.2312 44.5158ZM37.4326 40.1471C37.9103 39.672 38.3917 39.2003 38.8768 38.732L40.2659 40.1709C39.7879 40.6323 39.3136 41.0971 38.8429 41.5652L37.4326 40.1471ZM41.8241 35.9697C42.3225 35.5163 42.8244 35.0663 43.3298 34.6199L44.6538 36.119C44.1557 36.5589 43.6611 37.0022 43.1701 37.449L41.8241 35.9697ZM46.3963 31.9912C46.9143 31.5602 47.4356 31.1329 47.9604 30.7093L49.2167 32.2654C48.6996 32.6829 48.1859 33.1039 47.6755 33.5286L46.3963 31.9912ZM51.1399 28.2188C51.6764 27.8112 52.2161 27.4073 52.759 27.0074L53.9453 28.6175C53.4103 29.0117 52.8785 29.4096 52.3499 29.8112L51.1399 28.2188ZM56.0458 24.6598C56.5997 24.2764 57.1567 23.8969 57.7168 23.5213L58.8306 25.1825C58.2788 25.5525 57.7299 25.9265 57.1841 26.3043L56.0458 24.6598ZM61.1046 21.3217C61.6749 20.9632 62.2482 20.6088 62.8244 20.2586L63.8633 21.9675C63.2956 22.3127 62.7308 22.6618 62.1688 23.015L61.1046 21.3217ZM66.3069 18.2116C66.8926 17.879 67.4811 17.5505 68.0723 17.2263L69.034 18.9799C68.4515 19.2993 67.8717 19.6229 67.2946 19.9507L66.3069 18.2116ZM71.6431 15.3369C72.2431 15.0309 72.8457 14.7292 73.4508 14.4318L74.3328 16.2268C73.7367 16.5198 73.143 16.817 72.5519 17.1185L71.6431 15.3369ZM77.1034 12.7048C77.7165 12.4261 78.332 12.1519 78.95 11.8822L79.7499 13.7153C79.1412 13.9809 78.5349 14.251 77.931 14.5256L77.1034 12.7048ZM82.6774 10.3223C83.3024 10.0717 83.9297 9.82581 84.5592 9.58452L85.275 11.4521C84.6549 11.6897 84.0371 11.9319 83.4214 12.1787L82.6774 10.3223ZM88.3545 8.19598C88.9901 7.97436 89.6279 7.75745 90.2679 7.54529L90.8972 9.44367C90.2671 9.6526 89.6389 9.86623 89.0129 10.0845L88.3545 8.19598ZM94.1236 6.33239C94.7686 6.14035 95.4156 5.95312 96.0645 5.77076L96.6056 7.69617C95.9665 7.87575 95.3294 8.06012 94.6943 8.24924L94.1236 6.33239ZM99.9731 4.73737C100.626 4.57552 101.281 4.41859 101.937 4.26662L102.388 6.21511C101.742 6.36474 101.097 6.51926 100.454 6.67862L99.9731 4.73737ZM105.891 3.41616C106.551 3.28505 107.212 3.15894 107.874 3.03789L108.234 5.00533C107.581 5.12451 106.93 5.24867 106.281 5.37776L105.891 3.41616ZM111.865 2.37328C112.53 2.27333 113.195 2.17847 113.863 2.08872L114.129 4.07088C113.472 4.15923 112.817 4.25262 112.163 4.35102L111.865 2.37328ZM117.883 1.61232C118.55 1.54384 119.219 1.4805 119.889 1.42235L120.062 3.41486C119.402 3.47211 118.744 3.53446 118.087 3.60188L117.883 1.61232ZM123.927 1.13605C124.597 1.09911 125.269 1.06738 125.942 1.04089L126.02 3.03935C125.358 3.06542 124.697 3.09666 124.037 3.13303L123.927 1.13605ZM129.985 0.945412C130.323 0.942741 130.661 0.941406 131 0.941406V2.94141C130.667 2.94141 130.334 2.94272 130.001 2.94534L129.985 0.945412Z" fill="#0461FD"/>
</svg>
