<svg width="21" height="22" viewBox="0 0 21 22" fill="none" xmlns="http://www.w3.org/2000/svg">
<path fill-rule="evenodd" clip-rule="evenodd" d="M10.5 19.8208C15.1944 19.8208 19 16.0152 19 11.3208C19 6.62638 15.1944 2.8208 10.5 2.8208C5.80558 2.8208 2 6.62638 2 11.3208C2 16.0152 5.80558 19.8208 10.5 19.8208ZM10.5 21.8208C16.299 21.8208 21 17.1198 21 11.3208C21 5.52181 16.299 0.820801 10.5 0.820801C4.70101 0.820801 0 5.52181 0 11.3208C0 17.1198 4.70101 21.8208 10.5 21.8208Z" fill="#0461FD"/>
<path fill-rule="evenodd" clip-rule="evenodd" d="M15.0252 8.70451C15.4157 9.09504 15.4157 9.7282 15.0252 10.1187L9.9683 15.1756L6.87884 11.5918C6.51823 11.1735 6.565 10.5421 6.98331 10.1815C7.40161 9.82088 8.03305 9.86765 8.39366 10.286L10.0769 12.2385L13.611 8.70451C14.0015 8.31399 14.6346 8.31399 15.0252 8.70451Z" fill="#0461FD"/>
</svg>
