<svg width="83" height="84" viewBox="0 0 83 84" fill="none" xmlns="http://www.w3.org/2000/svg">
<circle cx="43" cy="43.0586" r="40" fill="#0461FD"/>
<circle cx="40" cy="40.0586" r="40" fill="#EAF4FE"/>
<path d="M5 40.0586C5 20.7286 20.67 5.05859 40 5.05859" stroke="white" stroke-width="4" stroke-linecap="round"/>
<path d="M59.472 42.5416C59.8493 41.2605 58.889 39.9766 57.5534 39.9766H31.2481C30.3612 39.9766 29.5802 40.5607 29.3296 41.4115L26.0655 52.4942C25.6882 53.7753 26.6485 55.0592 27.984 55.0592H54.2894C55.1763 55.0592 55.9573 54.4751 56.2079 53.6243L59.472 42.5416Z" fill="#0461FD"/>
<path d="M54.6116 38.0131C55.7161 38.0131 56.6116 37.1177 56.6116 36.0131V35.4305C56.6116 34.5007 55.7851 33.6743 54.8554 33.6743H40.3926C40.3133 33.6743 40.2188 33.6743 40.1266 33.6626C39.851 33.6277 39.6622 33.3761 39.4483 33.1989L36.157 30.4718C35.8471 30.1619 35.4339 30.0586 35.0207 30.0586H26.7562C25.8264 30.0586 25 30.885 25 31.8148V38.4352C25 40.2407 27.5548 40.6051 28.0597 38.8717C28.086 38.7816 28.1188 38.6932 28.1663 38.6122C28.3717 38.2626 28.6688 38.0131 29.1322 38.0131H54.6116Z" fill="#0461FD"/>
</svg>
