<svg width="83" height="84" viewBox="0 0 83 84" fill="none" xmlns="http://www.w3.org/2000/svg">
<circle cx="43" cy="43.0586" r="40" fill="#0461FD"/>
<circle cx="40" cy="40.0586" r="40" fill="#EAF4FE"/>
<path d="M5 41.0586C5 21.7286 20.67 6.05859 40 6.05859" stroke="white" stroke-width="4" stroke-linecap="round"/>
<path fill-rule="evenodd" clip-rule="evenodd" d="M29 28.0586C29 26.9541 29.8954 26.0586 31 26.0586H50C51.1046 26.0586 52 26.9541 52 28.0586V55.0586C52 56.1631 51.1046 57.0586 50 57.0586H31C29.8954 57.0586 29 56.1631 29 55.0586V28.0586ZM34 32.0586C34 31.5059 34.4477 31.0586 35 31.0586H46C46.5523 31.0586 47 31.5059 47 32.0586V37.0586C47 37.6113 46.5523 38.0586 46 38.0586H35C34.4477 38.0586 34 37.6113 34 37.0586V32.0586ZM35 41.0586C34.4477 41.0586 34 41.5059 34 42.0586C34 42.6113 34.4477 43.0586 35 43.0586H36C36.5523 43.0586 37 42.6113 37 42.0586C37 41.5059 36.5523 41.0586 36 41.0586H35ZM39 42.0586C39 41.5059 39.4477 41.0586 40 41.0586H41C41.5523 41.0586 42 41.5059 42 42.0586C42 42.6113 41.5523 43.0586 41 43.0586H40C39.4477 43.0586 39 42.6113 39 42.0586ZM45 41.0586C44.4477 41.0586 44 41.5059 44 42.0586C44 42.6113 44.4477 43.0586 45 43.0586H46C46.5523 43.0586 47 42.6113 47 42.0586C47 41.5059 46.5523 41.0586 46 41.0586H45ZM34 47.0586C34 46.5059 34.4477 46.0586 35 46.0586H36C36.5523 46.0586 37 46.5059 37 47.0586C37 47.6113 36.5523 48.0586 36 48.0586H35C34.4477 48.0586 34 47.6113 34 47.0586ZM40 46.0586C39.4477 46.0586 39 46.5059 39 47.0586C39 47.6113 39.4477 48.0586 40 48.0586H41C41.5523 48.0586 42 47.6113 42 47.0586C42 46.5059 41.5523 46.0586 41 46.0586H40ZM44 47.0586C44 46.5059 44.4477 46.0586 45 46.0586H46C46.5523 46.0586 47 46.5059 47 47.0586C47 47.6113 46.5523 48.0586 46 48.0586H45C44.4477 48.0586 44 47.6113 44 47.0586ZM35 51.0586C34.4477 51.0586 34 51.5059 34 52.0586C34 52.6113 34.4477 53.0586 35 53.0586H36C36.5523 53.0586 37 52.6113 37 52.0586C37 51.5059 36.5523 51.0586 36 51.0586H35ZM39 52.0586C39 51.5059 39.4477 51.0586 40 51.0586H41C41.5523 51.0586 42 51.5059 42 52.0586C42 52.6113 41.5523 53.0586 41 53.0586H40C39.4477 53.0586 39 52.6113 39 52.0586ZM45 51.0586C44.4477 51.0586 44 51.5059 44 52.0586C44 52.6113 44.4477 53.0586 45 53.0586H46C46.5523 53.0586 47 52.6113 47 52.0586C47 51.5059 46.5523 51.0586 46 51.0586H45Z" fill="#0461FD"/>
</svg>
