<svg width="83" height="84" viewBox="0 0 83 84" fill="none" xmlns="http://www.w3.org/2000/svg">
<circle cx="43" cy="43.0586" r="40" fill="#0461FD"/>
<circle cx="40" cy="40.0586" r="40" fill="#EAF4FE"/>
<path d="M5 41.0586C5 21.7286 20.67 6.05859 40 6.05859" stroke="white" stroke-width="4" stroke-linecap="round"/>
<path fill-rule="evenodd" clip-rule="evenodd" d="M32 26.0586C30.8954 26.0586 30 26.9541 30 28.0586V55.0586C30 56.1631 30.8954 57.0586 32 57.0586H51C52.1046 57.0586 53 56.1631 53 55.0586V34.3867C53 33.8564 52.7893 33.3477 52.4142 32.9727L46.0858 26.6445C45.7107 26.2695 45.202 26.0586 44.6716 26.0586H32ZM36 40.0586C35.4477 40.0586 35 40.5059 35 41.0586C35 41.6113 35.4477 42.0586 36 42.0586H47C47.5523 42.0586 48 41.6113 48 41.0586C48 40.5059 47.5523 40.0586 47 40.0586H36ZM35 46.0586C35 45.5059 35.4477 45.0586 36 45.0586H47C47.5523 45.0586 48 45.5059 48 46.0586C48 46.6113 47.5523 47.0586 47 47.0586H36C35.4477 47.0586 35 46.6113 35 46.0586ZM36 50.0586C35.4477 50.0586 35 50.5059 35 51.0586C35 51.6113 35.4477 52.0586 36 52.0586H41C41.5523 52.0586 42 51.6113 42 51.0586C42 50.5059 41.5523 50.0586 41 50.0586H36Z" fill="#0461FD"/>
</svg>
