<svg width="83" height="84" viewBox="0 0 83 84" fill="none" xmlns="http://www.w3.org/2000/svg">
<circle cx="43" cy="43.0586" r="40" fill="#0461FD"/>
<circle cx="40" cy="40.0586" r="40" fill="#EAF4FE"/>
<path d="M5 41.0586C5 21.7286 20.67 6.05859 40 6.05859" stroke="white" stroke-width="4" stroke-linecap="round"/>
<path d="M55.8915 31.3819H47.0231V28.1671C47.0231 27.8731 46.9063 27.5912 46.6984 27.3833C46.4905 27.1754 46.2086 27.0586 45.9145 27.0586H36.0854C35.7914 27.0586 35.5095 27.1754 35.3016 27.3833C35.0937 27.5912 34.9769 27.8731 34.9769 28.1671V31.3819H26.1085C25.8145 31.3819 25.5326 31.4987 25.3247 31.7066C25.1168 31.9145 25 32.1965 25 32.4905V54.1071C25 54.4011 25.1168 54.6831 25.3247 54.891C25.5326 55.0988 25.8145 55.2156 26.1085 55.2156H55.8915C56.1855 55.2156 56.4674 55.0988 56.6753 54.891C56.8832 54.6831 57 54.4011 57 54.1071V32.4905C57 32.1965 56.8832 31.9145 56.6753 31.7066C56.4674 31.4987 56.1855 31.3819 55.8915 31.3819ZM37.194 29.2757H44.806V31.3819H37.194V29.2757ZM43.2171 39.3265V41.8761H38.7829V39.3265H43.2171ZM54.7829 52.9985H27.2171V41.6914H36.5658V42.9477C36.5658 43.2417 36.6826 43.5237 36.8905 43.7316C37.0984 43.9395 37.3804 44.0563 37.6744 44.0563H44.3256C44.6196 44.0563 44.9016 43.9395 45.1095 43.7316C45.3174 43.5237 45.4342 43.2417 45.4342 42.9477V41.6914H54.7829V52.9985Z" fill="#0461FD"/>
</svg>
