<svg viewBox="0 0 91 45" fill="none" xmlns="http://www.w3.org/2000/svg">
<path d="M28.438 29.6245H34.1764V31.5158H31.4466V44.8049H28.438V29.6245Z" fill="black" fill-opacity="0.15"/>
<path d="M37.5788 39.1061L38.0944 31.5158H38.2671L38.7827 39.1061H37.5788ZM34.2471 44.8049H37.1927L37.4715 40.7734H38.8901L39.1701 44.8049H42.1145L40.5455 29.6245H35.8161L34.2471 44.8049Z" fill="black" fill-opacity="0.15"/>
<path d="M46.4229 39.4918V42.3537C46.4229 42.7394 46.7189 42.8514 46.8916 42.8514C47.1753 42.8514 47.3727 42.615 47.3727 42.3537V38.8199C47.3727 38.347 47.2864 37.8244 46.1638 37.8244H44.9427V36.1571H46.2132C47.0643 36.1571 47.3727 35.958 47.3727 35.0248V32.0136C47.3727 31.7523 47.1753 31.5158 46.8916 31.5158C46.7189 31.5158 46.4229 31.6154 46.4229 32.0136V34.4897H43.4131V32.3371C43.4131 31.2794 43.5364 29.6245 45.6458 29.6245H48.1375C50.2468 29.6245 50.3825 31.2794 50.3825 32.3371V34.7635C50.3825 36.4184 49.2353 36.8663 48.3349 36.829V36.9783C50.3578 36.9285 50.3825 38.4964 50.3825 39.0314V42.0924C50.3825 43.1625 50.2468 44.8049 48.1375 44.8049H45.6458C43.5364 44.8049 43.4131 43.1625 43.4131 42.0924V39.4918H46.4229Z" fill="black" fill-opacity="0.15"/>
<path d="M52.3562 29.6245H59.3256V44.8049H56.3158V31.5158H55.366V44.8049H52.3562V29.6245Z" fill="black" fill-opacity="0.15"/>
<path d="M64.3094 37.9737V31.5158H64.7041C65.0248 31.5158 65.2592 31.7896 65.2592 32.2749V37.2147C65.2592 37.7 65.0248 37.9737 64.7041 37.9737H64.3094ZM61.2996 44.8049H64.3094V39.6411H66.0363C68.1333 39.6411 68.269 37.9986 68.269 36.9285V32.3371C68.269 31.2794 68.1333 29.6245 66.0363 29.6245H61.2996V44.8049Z" fill="black" fill-opacity="0.15"/>
<path d="M74.2023 42.3537C74.2023 42.615 74.0049 42.8514 73.7212 42.8514C73.5485 42.8514 73.2525 42.7394 73.2525 42.3537V32.0136C73.2525 31.6154 73.5485 31.5158 73.7212 31.5158C74.0049 31.5158 74.2023 31.7523 74.2023 32.0136V42.3537ZM70.2427 42.0924C70.2427 43.1625 70.3784 44.8049 72.4754 44.8049H74.9794C77.0764 44.8049 77.2121 43.1625 77.2121 42.0924V32.3371C77.2121 31.2794 77.0764 29.6245 74.9794 29.6245H72.4754C70.3784 29.6245 70.2427 31.2794 70.2427 32.3371V42.0924Z" fill="black" fill-opacity="0.15"/>
<path d="M87.0061 29.6245H90.9287V44.8049H87.9189V35.2861H87.8079L86.2537 44.8049H83.8483L82.3064 35.2861H82.1953V44.8049H79.1855V29.6245H83.0958L85.0571 40.3006L87.0061 29.6245Z" fill="black" fill-opacity="0.15"/>
<path d="M24.538 8.86977C23.6165 4.80093 21.3074 1.4911 20.9891 0.956055C20.4858 1.71508 18.6442 4.63917 17.7079 7.87434C16.6853 11.4952 16.5348 14.7055 16.8876 17.8536C17.2379 21.0141 18.5615 24.2617 18.5615 24.2617C19.2646 25.954 20.3181 27.7831 21.0039 28.679C22.0092 27.36 24.3196 23.4281 25.04 18.3015C25.4409 15.4397 25.4582 12.9386 24.538 8.86977ZM20.9891 27.6587C20.5364 26.8001 19.8333 25.1701 19.7667 22.6317C19.7494 20.1929 20.7202 18.09 21.0039 17.6545C21.2568 18.09 22.0931 19.9191 22.193 22.4202C22.2609 24.859 21.4566 26.7876 20.9891 27.6587ZM24.2703 15.7756C24.2358 17.331 24.0519 18.9735 23.8176 19.9565C23.9015 18.2642 23.7004 15.8876 23.3155 14.0212C22.9307 12.1672 21.8415 9.05642 20.9718 7.62548C20.1688 8.99421 19.1795 11.6819 18.6614 14.0087C18.1409 16.3356 18.1261 19.1601 18.1261 20.0062C17.9879 19.297 17.6425 16.7462 17.74 14.1954C17.8214 12.0925 18.3099 9.91499 18.5776 8.91955C19.5989 5.59728 20.7547 3.46953 20.9718 3.13357C21.1889 3.46953 22.6445 6.09499 23.3994 8.84489C24.1506 11.5948 24.3024 14.2327 24.2703 15.7756Z" fill="black" fill-opacity="0.15"/>
<path d="M22.5517 29.6248H15.5465V34.3655C15.5526 34.3655 15.5576 34.3531 15.5637 34.3531C17.2142 32.6857 19.8909 32.6857 21.5426 34.3531C23.1931 36.008 23.1931 38.7081 21.5426 40.3755C21.5352 40.3879 21.5278 40.3879 21.5204 40.4004C21.5118 40.4004 21.5032 40.4128 21.4958 40.4253C19.849 42.0677 17.6977 42.889 15.5465 42.889C13.3853 42.889 11.2242 42.0677 9.57619 40.4004C6.66999 37.4763 6.32584 32.9346 8.54125 29.6248C8.83976 29.1768 9.18392 28.7537 9.57619 28.3556C11.2242 26.6882 13.3853 25.867 15.5465 25.867V14.4692C7.24235 14.4692 0.510986 21.2506 0.510986 29.6248C0.510986 37.9989 7.24235 44.7927 15.5465 44.7927C19.8761 44.7927 23.7766 42.9387 26.5199 39.9898V29.6248H22.5517Z" fill="black" fill-opacity="0.15"/>
</svg>
