<svg width="18" height="12" viewBox="0 0 18 12" xmlns="http://www.w3.org/2000/svg">
<path d="M8.51064 5.95745L17.0213 1.78723V1.02128C17.0213 0.425532 16.5957 0 16 0H1.02128C0.425532 0 0 0.425532 0 1.02128V2.12766L7.82979 5.95745C8.08511 6.04255 8.34043 6.04255 8.51064 5.95745Z"/>
<path d="M8.17021 7.4894C7.82979 7.4894 7.48936 7.4043 7.23404 7.23408L0 3.74472V11.0639C0 11.6596 0.425532 12.0851 1.02128 12.0851H16C16.5957 12.0851 17.0213 11.6596 17.0213 11.0639V3.4043L9.19149 7.23408C8.85106 7.4043 8.51064 7.4894 8.17021 7.4894Z"/>
</svg>
