<svg width="16" height="13" viewBox="0 0 16 13" xmlns="http://www.w3.org/2000/svg">
<path d="M13.5195 12.1909C13.4309 12.5774 13.2536 12.8351 13.032 12.9425C12.8104 13.0499 12.5223 13.0069 12.1899 12.8136L8.53344 10.1937L6.76061 11.8473C6.6498 11.9546 6.539 12.0405 6.47252 12.0835C6.36172 12.1479 6.20659 12.1909 6.00715 12.1909L6.29524 8.56159L13.0985 2.57009C13.1871 2.50566 13.2315 2.44124 13.1871 2.37681C13.1428 2.31239 13.0763 2.29091 12.9655 2.31239C12.8547 2.33386 12.7439 2.35534 12.6331 2.44124L4.21215 7.59522L0.577837 6.47853C0.178949 6.37115 -0.0204956 6.19935 0.00166482 5.96313C0.0238253 5.7269 0.26759 5.53363 0.755121 5.34035L14.9157 0.0575221C15.2702 -0.0498525 15.5583 -0.00690266 15.7799 0.186372C16.0015 0.379646 16.0458 0.723245 15.9572 1.19569L13.5195 12.1909Z"/>
</svg>
