<svg width="24" height="15" viewBox="0 0 24 15" fill="none" xmlns="http://www.w3.org/2000/svg">
<path d="M23.418 1.82031C23.332 2.25 22.9883 2.98047 22.3867 3.96875C21.957 4.69922 21.4414 5.51562 20.8398 6.46094C20.3242 7.23438 20.0234 7.62109 20.0234 7.62109C19.8516 7.87891 19.7656 8.09375 19.7656 8.22266C19.7656 8.39453 19.8516 8.56641 20.0234 8.73828L20.4102 9.16797C22.4727 11.3164 23.6328 12.7773 23.8906 13.5508C23.9766 13.8945 23.9336 14.1953 23.7617 14.3672C23.5898 14.5391 23.375 14.625 23.0312 14.625H20.4961C20.1523 14.625 19.8945 14.5391 19.6367 14.3242C19.4648 14.2383 19.1211 13.9375 18.6914 13.4219C18.2617 12.9062 17.875 12.4766 17.5312 12.1328C16.3711 11.0586 15.5117 10.5 14.9961 10.5C14.7383 10.5 14.5664 10.543 14.4805 10.6289C14.3945 10.7148 14.3516 10.9297 14.3516 11.1875C14.3086 11.4023 14.3086 11.832 14.3086 12.5195V13.6367C14.3086 13.9805 14.2227 14.2383 14.0508 14.3672C13.793 14.5391 13.2773 14.625 12.5039 14.625C11.1289 14.625 9.79688 14.2383 8.42188 13.4219C7.04688 12.6484 5.84375 11.4883 4.8125 9.98438C3.82422 8.69531 3.00781 7.36328 2.36328 5.98828C1.84766 4.95703 1.41797 4.01172 1.11719 3.10938C0.902344 2.42188 0.816406 1.90625 0.816406 1.60547C0.816406 1.13281 1.07422 0.875 1.67578 0.875H4.21094C4.51172 0.875 4.72656 0.960938 4.89844 1.08984C5.07031 1.26172 5.19922 1.51953 5.32812 1.86328C5.71484 3.02344 6.1875 4.14062 6.78906 5.21484C7.30469 6.24609 7.82031 7.0625 8.33594 7.66406C8.85156 8.30859 9.23828 8.60938 9.53906 8.60938C9.71094 8.60938 9.79688 8.56641 9.88281 8.4375C9.96875 8.30859 10.0117 8.05078 10.0117 7.66406V3.92578C9.96875 3.49609 9.88281 3.06641 9.71094 2.72266C9.625 2.55078 9.45312 2.33594 9.28125 2.07812C9.06641 1.82031 8.98047 1.64844 8.98047 1.47656C8.98047 1.30469 9.02344 1.17578 9.15234 1.04688C9.28125 0.960938 9.45312 0.875 9.625 0.875H13.6211C13.8789 0.875 14.0508 0.960938 14.1367 1.08984C14.2227 1.26172 14.3086 1.47656 14.3086 1.82031V6.80469C14.3086 7.0625 14.3516 7.27734 14.4375 7.36328C14.5234 7.49219 14.6094 7.53516 14.7383 7.53516C14.8672 7.53516 15.0391 7.49219 15.2109 7.40625C15.3828 7.32031 15.5977 7.10547 15.8984 6.76172C16.4141 6.16016 16.9727 5.42969 17.5312 4.52734C17.875 3.92578 18.2617 3.23828 18.6055 2.46484L19.0352 1.60547C19.207 1.13281 19.5938 0.875 20.1094 0.875H22.6445C23.332 0.875 23.5898 1.21875 23.418 1.82031Z" fill="#0461FD"/>
</svg>
