<?xml version="1.0" encoding="utf-8"?>
<!-- Generator: Adobe Illustrator 22.1.0, SVG Export Plug-In . SVG Version: 6.00 Build 0)  -->
<svg version="1.1" id="Слой_1" xmlns="http://www.w3.org/2000/svg" xmlns:xlink="http://www.w3.org/1999/xlink" x="0px" y="0px"
	 viewBox="0 0 14.7 45.6" style="enable-background:new 0 0 14.7 45.6;" xml:space="preserve">
<style type="text/css">
	.st0{fill:#0461FD;}
</style>
<g>
	<path class="st0" d="M12.6,35.6c-0.2-0.2-0.5-0.3-0.7-0.4c-0.3-0.7-0.7-1.2-1.3-1.6c-1.2-0.8-2.6-1.3-4.3-1.3
		c-1.7,0-3.1,0.4-4.4,1.3c-1.2,0.8-1.8,2.3-1.8,4.4c0,2,0.6,3.4,1.8,4.3c0.2,0.2,0.5,0.3,0.7,0.4c0.3,0.6,0.7,1.2,1.3,1.6
		c1.2,0.9,2.7,1.3,4.4,1.3c1.6,0,3.1-0.4,4.3-1.3s1.8-2.3,1.8-4.3C14.4,37.9,13.8,36.4,12.6,35.6z M3.1,35.2
		c0.9-0.6,1.9-0.9,3.2-0.9c1.3,0,2.3,0.3,3.1,0.9c0.5,0.3,0.9,1,0.9,2.7c0,1.5-0.5,2.3-1,2.6c-0.8,0.6-1.8,0.9-3.1,0.9
		c-1.3,0-2.3-0.3-3.2-0.9c-0.5-0.4-1-1.1-1-2.6C2.1,36.3,2.6,35.6,3.1,35.2z M3.4,43c0.1,0,0.2,0.1,0.3,0.1C3.5,43.1,3.4,43,3.4,43z
		 M5.2,43.5c0.4,0,0.7,0.1,1.1,0.1C5.9,43.6,5.6,43.5,5.2,43.5z M4.2,43.3c0.2,0,0.3,0.1,0.5,0.1C4.6,43.4,4.4,43.3,4.2,43.3z
		 M12.2,36.4C12.2,36.4,12.2,36.4,12.2,36.4C12.2,36.4,12.2,36.4,12.2,36.4z M12.3,37.1C12.3,37.1,12.3,37.2,12.3,37.1
		C12.3,37.2,12.3,37.1,12.3,37.1z"/>
	<path class="st0" d="M3.4,27.7l0.1,2h9.7L14.7,2h-2.1l-1.4,25.7L12.7,0H0l1.5,27.7H3.4z M10.5,2L9.3,25.7H3.4L2.1,2H10.5z"/>
</g>
</svg>
