<svg viewBox="0 0 16 15" xmlns="http://www.w3.org/2000/svg">
<path d="M8.14507 0C3.80732 0 0.2905 3.27121 0.2905 7.30687C0.2905 8.68734 0.702357 9.97842 1.41764 11.0799L0 15L4.34871 13.7048C5.474 14.2836 6.76818 14.6137 8.14507 14.6137C12.4834 14.6137 16 11.3421 16 7.30687C16 3.27127 12.4834 0 8.14507 0ZM12.0509 10.0818C11.8661 10.5113 11.0304 10.9032 10.6616 10.9213C10.2933 10.9396 10.2828 11.1889 8.27443 10.371C6.26643 9.55292 5.05836 7.56375 4.96307 7.43565C4.86771 7.30801 4.18521 6.39613 4.222 5.47845C4.25914 4.5606 4.79514 4.12758 4.98646 3.94748C5.17761 3.76711 5.39671 3.7348 5.5305 3.73276C5.68864 3.73035 5.79107 3.72834 5.90811 3.73242C6.02504 3.73654 6.20068 3.70945 6.35275 4.0886C6.50475 4.46772 6.86857 5.39953 6.91511 5.49452C6.96161 5.58954 6.99039 5.6996 6.91875 5.82164C6.84689 5.94395 6.81011 6.02036 6.70589 6.12576C6.60104 6.23116 6.48536 6.36154 6.39186 6.44217C6.28757 6.53136 6.17864 6.62866 6.28829 6.81944C6.39793 7.01006 6.77593 7.63493 7.35186 8.14989C8.09204 8.81183 8.73036 9.03147 8.92679 9.13148C9.12375 9.23206 9.24129 9.22088 9.36343 9.10035C9.485 8.97988 9.88629 8.57317 10.0276 8.3916C10.1688 8.20945 10.3011 8.24514 10.4826 8.31358C10.664 8.38229 11.6311 8.86791 11.8281 8.96816C12.0249 9.06827 12.1564 9.11983 12.2035 9.19918C12.2505 9.27887 12.2356 9.65227 12.051 10.0818L12.0509 10.0818Z"/>
</svg>
