<svg width="25" height="17" viewBox="0 0 25 17" fill="none" xmlns="http://www.w3.org/2000/svg">
<path d="M23.7578 3.07812C23.9297 3.85156 24.1016 5.05469 24.1875 6.60156L24.2305 8.75L24.1875 10.8984C24.1016 12.5312 23.9297 13.6914 23.7578 14.4648C23.5859 14.9805 23.3281 15.4102 22.9844 15.7539C22.5977 16.1406 22.168 16.3984 21.6523 16.5273C20.8789 16.7422 19.1602 16.8711 16.4102 16.957L12.5 17L8.58984 16.957C5.83984 16.8711 4.07812 16.7422 3.34766 16.5273C2.83203 16.3984 2.35938 16.1406 2.01562 15.7539C1.62891 15.4102 1.37109 14.9805 1.24219 14.4648C1.02734 13.6914 0.898438 12.5312 0.8125 10.8984L0.769531 8.75C0.769531 8.14844 0.769531 7.41797 0.8125 6.60156C0.898438 5.05469 1.02734 3.85156 1.24219 3.07812C1.37109 2.5625 1.62891 2.13281 2.01562 1.74609C2.35938 1.40234 2.83203 1.14453 3.34766 0.972656C4.07812 0.800781 5.83984 0.628906 8.58984 0.542969L12.5 0.5L16.4102 0.542969C19.1602 0.628906 20.8789 0.800781 21.6523 0.972656C22.168 1.14453 22.5977 1.40234 22.9844 1.74609C23.3281 2.13281 23.5859 2.5625 23.7578 3.07812ZM10.0938 12.2734L16.2383 8.75L10.0938 5.26953V12.2734Z" fill="black"/>
</svg>
